<svg width="65" height="64" viewBox="0 0 65 64" fill="none" xmlns="http://www.w3.org/2000/svg">
<rect width="64.6154" height="64" rx="6.66667" fill="#111827"/>
<g clip-path="url(#clip0_3911_19663)">
<path d="M46.9707 31.3276V27.5549C46.9707 25.7014 45.4959 24.1867 43.6582 24.1206V21.8049C43.6582 20.5987 42.6769 19.6174 41.4707 19.6174H35.4483L34.6706 17.4557C34.4723 16.9045 34.071 16.464 33.5405 16.2154C33.01 15.9668 32.4146 15.9403 31.8641 16.1407L20.9357 20.1182C20.3858 20.3184 19.9471 20.7208 19.7004 21.2514C19.4536 21.7821 19.4286 22.3769 19.6299 22.9264L20.069 24.1248C18.273 24.2359 16.8457 25.7315 16.8457 27.5549V44.5549C16.8457 46.4504 18.3878 47.9924 20.2832 47.9924H43.5332C45.4286 47.9924 46.9707 46.4504 46.9707 44.5549V40.6572C48.0293 40.5051 48.8457 39.5925 48.8457 38.4924V33.4924C48.8457 32.3924 48.0293 31.4798 46.9707 31.3276ZM46.9707 38.4924C46.9707 38.6647 46.8305 38.8049 46.6582 38.8049H41.6582C40.1074 38.8049 38.8457 37.5432 38.8457 35.9924C38.8457 34.4416 40.1074 33.1799 41.6582 33.1799H46.6582C46.8305 33.1799 46.9707 33.3201 46.9707 33.4924V38.4924ZM21.3905 22.2814C21.3516 22.1754 21.3801 22.086 21.4005 22.0421C21.421 21.9982 21.471 21.9187 21.577 21.8802L32.5054 17.9026C32.6115 17.8641 32.701 17.8927 32.7449 17.9133C32.7888 17.9339 32.8681 17.9842 32.9063 18.0905L33.4557 19.6175H33.0332C31.827 19.6175 30.8457 20.5988 30.8457 21.805V24.1175H22.0631L21.3905 22.2814ZM41.7832 21.8049V24.1174H32.7207V21.8049C32.7207 21.6326 32.8609 21.4924 33.0332 21.4924H41.4707C41.643 21.4924 41.7832 21.6326 41.7832 21.8049ZM43.5332 46.1174H20.2832C19.4216 46.1174 18.7207 45.4165 18.7207 44.5549V27.5549C18.7207 26.6934 19.4216 25.9924 20.2832 25.9924H43.5332C44.3948 25.9924 45.0957 26.6934 45.0957 27.5549V31.3049H41.6582C39.0735 31.3049 36.9707 33.4077 36.9707 35.9924C36.9707 38.5771 39.0735 40.6799 41.6582 40.6799H45.0957V44.5549C45.0957 45.4165 44.3948 46.1174 43.5332 46.1174Z" fill="#667084"/>
<path d="M41.6582 36.9299C42.176 36.9299 42.5957 36.5102 42.5957 35.9924C42.5957 35.4747 42.176 35.0549 41.6582 35.0549C41.1404 35.0549 40.7207 35.4747 40.7207 35.9924C40.7207 36.5102 41.1404 36.9299 41.6582 36.9299Z" fill="#667084"/>
</g>
<defs>
<clipPath id="clip0_3911_19663">
<rect width="32" height="32" fill="white" transform="translate(16.8457 16)"/>
</clipPath>
</defs>
</svg>
