<svg width="65" height="64" viewBox="0 0 65 64" fill="none" xmlns="http://www.w3.org/2000/svg">
<rect width="64.496" height="64" rx="6.66667" fill="#111827"/>
<g clip-path="url(#clip0_3495_18638)">
<path d="M44.5337 19.5H43.0365V17H40.5411V19.5H24.0716V17H21.5762V19.5H20.079C18.0151 19.5 16.3359 21.1823 16.3359 23.25V45.25C16.3359 47.3177 18.0151 49 20.079 49H44.5337C46.5976 49 48.2768 47.3177 48.2768 45.25V23.25C48.2768 21.1823 46.5976 19.5 44.5337 19.5ZM45.7814 45.25C45.7814 45.9393 45.2217 46.5 44.5337 46.5H20.079C19.391 46.5 18.8313 45.9393 18.8313 45.25V28.75H45.7814V45.25ZM45.7814 26.25H18.8313V23.25C18.8313 22.5608 19.391 22 20.079 22H21.5762V24.5H24.0716V22H40.5411V24.5H43.0365V22H44.5337C45.2217 22 45.7814 22.5608 45.7814 23.25V26.25Z" fill="#667084"/>
<path d="M23.5735 31.375H21.0781V33.875H23.5735V31.375Z" fill="#667084"/>
<path d="M28.5637 31.375H26.0684V33.875H28.5637V31.375Z" fill="#667084"/>
<path d="M33.554 31.375H31.0586V33.875H33.554V31.375Z" fill="#667084"/>
<path d="M38.5462 31.375H36.0508V33.875H38.5462V31.375Z" fill="#667084"/>
<path d="M43.5364 31.375H41.041V33.875H43.5364V31.375Z" fill="#667084"/>
<path d="M23.5735 36.375H21.0781V38.875H23.5735V36.375Z" fill="#667084"/>
<path d="M28.5637 36.375H26.0684V38.875H28.5637V36.375Z" fill="#667084"/>
<path d="M33.554 36.375H31.0586V38.875H33.554V36.375Z" fill="#667084"/>
<path d="M38.5462 36.375H36.0508V38.875H38.5462V36.375Z" fill="#667084"/>
<path d="M23.5735 41.375H21.0781V43.875H23.5735V41.375Z" fill="#667084"/>
<path d="M28.5637 41.375H26.0684V43.875H28.5637V41.375Z" fill="#667084"/>
<path d="M33.554 41.375H31.0586V43.875H33.554V41.375Z" fill="#667084"/>
<path d="M38.5462 41.375H36.0508V43.875H38.5462V41.375Z" fill="#667084"/>
<path d="M43.5364 36.375H41.041V38.875H43.5364V36.375Z" fill="#667084"/>
</g>
<defs>
<clipPath id="clip0_3495_18638">
<rect width="31.9409" height="32" fill="white" transform="translate(16.3359 17)"/>
</clipPath>
</defs>
</svg>
