<svg width="65" height="64" viewBox="0 0 65 64" fill="none" xmlns="http://www.w3.org/2000/svg">
<rect width="64.496" height="64" rx="6.66667" fill="#111827"/>
<path d="M31.9413 40.8241C35.2604 40.8241 37.951 38.1285 37.951 34.8033C37.951 31.4781 35.2604 28.7825 31.9413 28.7825C28.6223 28.7825 25.9316 31.4781 25.9316 34.8033C25.9316 38.1285 28.6223 40.8241 31.9413 40.8241Z" stroke="#667084" stroke-miterlimit="10"/>
<path d="M31.9417 48.0625C39.251 48.0625 45.1764 42.1262 45.1764 34.8033C45.1764 27.4805 39.251 21.5441 31.9417 21.5441C24.6324 21.5441 18.707 27.4805 18.707 34.8033C18.707 42.1262 24.6324 48.0625 31.9417 48.0625Z" stroke="#667084" stroke-miterlimit="10"/>
<path d="M31.9414 21.5441V23.6922" stroke="#667084" stroke-miterlimit="10"/>
<path d="M25.3242 23.3205L26.3963 25.1808" stroke="#667084" stroke-miterlimit="10"/>
<path d="M20.4805 28.1737L22.3373 29.2478" stroke="#667084" stroke-miterlimit="10"/>
<path d="M18.707 34.8033H20.8511" stroke="#667084" stroke-miterlimit="10"/>
<path d="M20.4805 41.4329L22.3373 40.3589" stroke="#667084" stroke-miterlimit="10"/>
<path d="M25.3242 46.2861L26.3963 44.4259" stroke="#667084" stroke-miterlimit="10"/>
<path d="M31.9414 48.0625V45.9144" stroke="#667084" stroke-miterlimit="10"/>
<path d="M38.5583 46.2861L37.4863 44.4259" stroke="#667084" stroke-miterlimit="10"/>
<path d="M43.4037 41.4329L41.5469 40.3589" stroke="#667084" stroke-miterlimit="10"/>
<path d="M45.1773 34.8033H43.0332" stroke="#667084" stroke-miterlimit="10"/>
<path d="M43.4037 28.1737L41.5469 29.2478" stroke="#667084" stroke-miterlimit="10"/>
<path d="M38.5583 23.3205L37.4863 25.1808" stroke="#667084" stroke-miterlimit="10"/>
<path d="M31.9414 28.7825V25.3437" stroke="#667084" stroke-miterlimit="10"/>
<path d="M28.5938 17.9375H35.2897" stroke="#667084" stroke-miterlimit="10"/>
<path d="M31.9414 17.9375V21.5441" stroke="#667084" stroke-miterlimit="10"/>
<path d="M20.8516 23.6922L22.5838 25.4276" stroke="#667084" stroke-miterlimit="10"/>
<path d="M43.033 23.6922L41.3008 25.4277" stroke="#667084" stroke-miterlimit="10"/>
</svg>
