<svg width="65" height="64" viewBox="0 0 65 64" fill="none" xmlns="http://www.w3.org/2000/svg">
<rect width="64.6154" height="64" rx="6.66667" fill="#111827"/>
<g clip-path="url(#clip0_3911_19646)">
<path d="M22.1625 44.4332C22.0463 44.3169 21.8851 44.2501 21.7207 44.2501C21.5563 44.2501 21.3951 44.3169 21.2788 44.4332C21.1626 44.5495 21.0957 44.7107 21.0957 44.8751C21.0957 45.0394 21.1625 45.2007 21.2788 45.3169C21.3951 45.4331 21.5563 45.5001 21.7207 45.5001C21.8851 45.5001 22.0463 45.4332 22.1625 45.3169C22.2788 45.2007 22.3457 45.0394 22.3457 44.8751C22.3457 44.7107 22.2788 44.5494 22.1625 44.4332Z" fill="#ACB2BD"/>
<path d="M46.1919 27.4336C46.0756 27.3173 45.915 27.2505 45.75 27.2505C45.5856 27.2505 45.4244 27.3173 45.3081 27.4336C45.1919 27.5499 45.125 27.7111 45.125 27.8755C45.125 28.0399 45.1919 28.2011 45.3081 28.3173C45.4244 28.4336 45.5856 28.5005 45.75 28.5005C45.915 28.5005 46.0756 28.4336 46.1919 28.3173C46.3087 28.2011 46.3756 28.0399 46.3756 27.8755C46.3756 27.7111 46.3087 27.5499 46.1919 27.4336Z" fill="#ACB2BD"/>
<path d="M48.6618 16.1831C48.5446 16.0659 48.3856 16 48.2198 16L32.8451 16.0008C32.5 16.0008 32.2202 16.2807 32.2202 16.6258V18.4131L26.2959 20.0006C25.9625 20.0899 25.7646 20.4326 25.854 20.766L28.9244 32.2249L26.2682 34.8811C25.9301 34.3874 25.3625 34.0628 24.7205 34.0628H18.7206C17.6868 34.0628 16.8457 34.9039 16.8457 35.9377V46.125C16.8457 47.1589 17.6868 48 18.7206 48H24.7205C25.5988 48 26.3377 47.3927 26.5402 46.5763L27.2833 47.2243C27.857 47.7246 28.592 48.0001 29.3532 48.0001H48.2199C48.565 48.0001 48.8449 47.7202 48.8449 47.3751V16.625C48.8448 16.4593 48.779 16.3002 48.6618 16.1831ZM25.3454 46.1251C25.3454 46.4696 25.065 46.7501 24.7204 46.7501H18.7206C18.376 46.7501 18.0956 46.4697 18.0956 46.1251V35.9378C18.0956 35.5932 18.376 35.3128 18.7206 35.3128H21.0955V42.5125C21.0955 42.8576 21.3754 43.1375 21.7205 43.1375C22.0656 43.1375 22.3455 42.8576 22.3455 42.5125V35.3128H24.7205C25.0651 35.3128 25.3455 35.5932 25.3455 35.9378V46.1251H25.3454ZM27.2231 21.0462L32.2202 19.7072V22.0231L31.8013 22.1354C31.6411 22.1783 31.5047 22.283 31.4218 22.4266C31.339 22.5701 31.3165 22.7407 31.3594 22.9008C31.5996 23.7971 31.0658 24.7217 30.1695 24.9619C30.0091 25.0049 29.8725 25.1097 29.7896 25.2536C29.7068 25.3974 29.6845 25.5683 29.7278 25.7286L32.164 34.7497H30.9096L30.2632 32.2207C30.2426 32.1402 30.2066 32.066 30.1585 32.0015L27.2231 21.0462ZM32.2202 24.8893V30.1631L31.0803 25.9422C31.5565 25.6963 31.9461 25.3284 32.2202 24.8893ZM41.1992 46.75H29.3531C28.894 46.75 28.4507 46.5839 28.1047 46.2822L26.5954 44.9659V36.3217L29.324 33.5931L29.8189 35.5293C29.8896 35.806 30.1388 35.9995 30.4244 35.9995L42.7121 36.0002C43.1946 36.0002 43.5871 36.3927 43.5871 36.8752C43.5871 37.3577 43.1946 37.7502 42.7121 37.7502H36.4159C36.0708 37.7502 35.7909 38.0301 35.7909 38.3752C35.7909 38.7204 36.0708 39.0002 36.4159 39.0002H44.6684C45.1509 39.0002 45.5434 39.3927 45.5434 39.8752C45.5434 40.3577 45.1509 40.7502 44.6684 40.7502H36.4159C36.0708 40.7502 35.7909 41.0301 35.7909 41.3752C35.7909 41.7204 36.0708 42.0002 36.4159 42.0002H43.3311C43.8136 42.0002 44.2061 42.3927 44.2061 42.8752C44.2061 43.3577 43.8136 43.7502 43.3311 43.7502H36.4159C36.0708 43.7502 35.7909 44.0301 35.7909 44.3752C35.7909 44.7204 36.0708 45.0002 36.4159 45.0002H41.1992C41.6817 45.0002 42.0742 45.3927 42.0742 45.8752C42.0741 46.3575 41.6816 46.75 41.1992 46.75ZM47.5949 46.75H43.1349C43.2561 46.4829 43.3241 46.1869 43.3241 45.875C43.3241 45.5631 43.2561 45.2671 43.1349 45H43.3311C44.5028 45 45.456 44.0468 45.456 42.8751C45.456 42.5333 45.3745 42.2104 45.2305 41.924C46.1302 41.6769 46.7933 40.8522 46.7933 39.8751C46.7933 39.4011 46.6371 38.9629 46.3738 38.6092V30.6879C46.3738 30.3428 46.094 30.0629 45.7488 30.0629C45.4037 30.0629 45.1238 30.3428 45.1238 30.6879V37.7999C44.977 37.7677 44.8246 37.7502 44.6683 37.7502H44.6478C44.769 37.4832 44.837 37.1871 44.837 36.8752C44.837 35.7035 43.8838 34.7503 42.7121 34.7503H41.7074C42.7742 34.2928 43.5235 33.2324 43.5235 32C43.5235 30.3507 42.1817 29.0089 40.5324 29.0089C38.8831 29.0089 37.5413 30.3507 37.5413 32C37.5413 33.2324 38.2906 34.2928 39.3574 34.7503H35.941V22.8664C37.0575 22.6231 37.9385 21.7422 38.1817 20.6256H42.883C43.1263 21.7422 44.0073 22.6231 45.1238 22.8664V24.8096C45.1238 25.1547 45.4036 25.4346 45.7488 25.4346C46.0939 25.4346 46.3738 25.1547 46.3738 24.8096V22.3084C46.3738 21.9633 46.0939 21.6834 45.7488 21.6834C44.8208 21.6834 44.066 20.9285 44.066 20.0006C44.066 19.6555 43.7861 19.3756 43.441 19.3756H37.6238C37.2786 19.3756 36.9988 19.6555 36.9988 20.0006C36.9988 20.9286 36.2439 21.6834 35.316 21.6834C34.9709 21.6834 34.691 21.9633 34.691 22.3084V34.7502H33.4703V17.2507L47.5949 17.25V46.75ZM40.5325 33.7411C39.5725 33.7411 38.7915 32.9601 38.7915 32.0001C38.7915 31.0401 39.5725 30.2589 40.5325 30.2589C41.4925 30.2589 42.2736 31.04 42.2736 32C42.2736 32.96 41.4926 33.7411 40.5325 33.7411Z" fill="#ACB2BD"/>
</g>
<defs>
<clipPath id="clip0_3911_19646">
<rect width="32" height="32" fill="white" transform="translate(16.8457 16)"/>
</clipPath>
</defs>
</svg>
