<svg width="66" height="64" viewBox="0 0 66 64" fill="none" xmlns="http://www.w3.org/2000/svg">
<rect x="0.598633" width="64.496" height="64" rx="6.66667" fill="#111827"/>
<path d="M35.3656 21.6671V24.8938" stroke="#667084" stroke-width="1.5" stroke-linecap="round" stroke-linejoin="round"/>
<path d="M35.3656 39.6801V42.3788" stroke="#667084" stroke-width="1.5" stroke-linecap="round" stroke-linejoin="round"/>
<path d="M35.3656 35.0995V28.6715" stroke="#667084" stroke-width="1.5" stroke-linecap="round" stroke-linejoin="round"/>
<path fill-rule="evenodd" clip-rule="evenodd" d="M41.824 42.6667C44.249 42.6667 46.2131 40.7234 46.2131 38.3242V34.8675C44.6085 34.8675 43.3162 33.589 43.3162 32.0014C43.3162 30.4138 44.6085 29.1339 46.2131 29.1339L46.2117 25.6758C46.2117 23.2766 44.2462 21.3333 41.8227 21.3333H23.9861C21.5626 21.3333 19.5971 23.2766 19.5971 25.6758L19.5957 29.2465C21.2003 29.2465 22.4926 30.4138 22.4926 32.0014C22.4926 33.589 21.2003 34.8675 19.5957 34.8675V38.3242C19.5957 40.7234 21.5598 42.6667 23.9847 42.6667H41.824Z" stroke="#667084" stroke-width="1.5" stroke-linecap="round" stroke-linejoin="round"/>
</svg>
