<svg width="65" height="64" viewBox="0 0 65 64" fill="none" xmlns="http://www.w3.org/2000/svg">
<rect width="64.6154" height="64" rx="6.66667" fill="#111827"/>
<path d="M44.2098 27.1754C44.2098 25.2888 43.276 23.859 42.2358 22.4402L37.9689 17L33.7206 22.4158L33.7022 22.4401C33.4216 22.8228 33.1491 23.2062 32.9002 23.5992L30.5712 20.6299L23.3168 29.8778L23.2984 29.9021C21.4491 32.4244 19.7891 34.9583 19.7891 38.2177C19.7891 44.1488 24.6028 48.9767 30.5286 48.9998L30.5726 49C36.5171 49 41.3533 44.1632 41.3533 38.2179C41.3533 36.3099 40.784 34.6508 39.9413 33.0968C42.4189 32.2696 44.2098 29.9279 44.2098 27.1754ZM30.6131 47.1224L30.5712 47.1223C25.6612 47.1223 21.6666 43.1278 21.6666 38.2178C21.6666 35.5271 23.0864 33.3673 24.8035 31.0246L30.5712 23.6721L31.9908 25.4818C31.8251 26.009 31.7281 26.5684 31.7281 27.1754C31.7281 30.6029 34.5058 33.3941 37.9283 33.4162L37.9649 33.4164C38.8669 34.9229 39.4758 36.4567 39.4758 38.2179C39.4758 43.1144 35.5039 47.1005 30.6131 47.1224ZM37.9931 31.5387H37.9689C35.5629 31.5387 33.6056 29.5813 33.6056 27.1753C33.6056 25.8566 34.2991 24.8019 35.2073 23.5626L37.9689 20.0421L40.7306 23.5626C41.6388 24.8019 42.3323 25.8567 42.3323 27.1754C42.3322 29.5736 40.388 31.5261 37.9931 31.5387Z" fill="#667084"/>
</svg>
