<svg width="66" height="64" viewBox="0 0 66 64" fill="none" xmlns="http://www.w3.org/2000/svg">
<rect x="0.634766" width="64.6154" height="64" rx="6.66667" fill="#111827"/>
<path d="M28.5 24.5H26.5C26.224 24.5 26 24.2765 26 24C26 23.7235 26.224 23.5 26.5 23.5H28.5C28.776 23.5 29 23.7235 29 24C29 24.2765 28.776 24.5 28.5 24.5Z" fill="#667084"/>
<path d="M38.5 28.5H24.5C24.224 28.5 24 28.2765 24 28C24 27.7235 24.224 27.5 24.5 27.5H38.5C38.776 27.5 39 27.7235 39 28C39 28.2765 38.776 28.5 38.5 28.5Z" fill="#667084"/>
<path d="M33.167 41H29.833C29.557 41 29.333 40.7765 29.333 40.5C29.333 40.2235 29.557 40 29.833 40H33.167C33.443 40 33.667 40.2235 33.667 40.5C33.667 40.7765 33.443 41 33.167 41Z" fill="#667084"/>
<path d="M36.167 43H29.833C29.557 43 29.333 42.7765 29.333 42.5C29.333 42.2235 29.557 42 29.833 42H36.167C36.443 42 36.667 42.2235 36.667 42.5C36.667 42.7765 36.443 43 36.167 43Z" fill="#667084"/>
<path d="M33 36C31.374 36 30 34.626 30 33C30 31.374 31.374 30 33 30C34.626 30 36 31.374 36 33C36 34.626 34.626 36 33 36ZM33 31C31.916 31 31 31.916 31 33C31 34.084 31.916 35 33 35C34.084 35 35 34.084 35 33C35 31.916 34.084 31 33 31Z" fill="#667084"/>
<path d="M37.168 39C36.892 39 36.668 38.7765 36.668 38.5C36.668 37.1215 35.5465 36 34.168 36C33.892 36 33.668 35.7765 33.668 35.5C33.668 35.2235 33.892 35 34.168 35C36.098 35 37.668 36.5705 37.668 38.5C37.668 38.7765 37.444 39 37.168 39Z" fill="#667084"/>
<path d="M34.166 36H31.832C31.556 36 31.332 35.7765 31.332 35.5C31.332 35.2235 31.556 35 31.832 35H34.166C34.442 35 34.666 35.2235 34.666 35.5C34.666 35.7765 34.442 36 34.166 36Z" fill="#667084"/>
<path d="M28.833 39C28.557 39 28.333 38.7765 28.333 38.5C28.333 36.5705 29.903 35 31.833 35C32.109 35 32.333 35.2235 32.333 35.5C32.333 35.7765 32.109 36 31.833 36C30.4545 36 29.333 37.1215 29.333 38.5C29.333 38.7765 29.109 39 28.833 39Z" fill="#667084"/>
<path d="M37.168 40C36.892 40 36.668 39.7765 36.668 39.5V38.5C36.668 38.2235 36.892 38 37.168 38C37.444 38 37.668 38.2235 37.668 38.5V39.5C37.668 39.7765 37.444 40 37.168 40Z" fill="#667084"/>
<path d="M36.168 41C35.892 41 35.668 40.7765 35.668 40.5C35.668 40.2235 35.892 40 36.168 40C36.4435 40 36.668 39.776 36.668 39.5C36.668 39.2235 36.892 39 37.168 39C37.444 39 37.668 39.2235 37.668 39.5C37.668 40.327 36.995 41 36.168 41Z" fill="#667084"/>
<path d="M29.833 41C29.006 41 28.333 40.327 28.333 39.5C28.333 39.2235 28.557 39 28.833 39C29.109 39 29.333 39.2235 29.333 39.5C29.333 39.776 29.5575 40 29.833 40C30.109 40 30.333 40.2235 30.333 40.5C30.333 40.7765 30.109 41 29.833 41Z" fill="#667084"/>
<path d="M28.833 40C28.557 40 28.333 39.7765 28.333 39.5V38.5C28.333 38.2235 28.557 38 28.833 38C29.109 38 29.333 38.2235 29.333 38.5V39.5C29.333 39.7765 29.109 40 28.833 40Z" fill="#667084"/>
<path d="M39.5 24.5H34.5C34.224 24.5 34 24.2765 34 24C34 23.7235 34.224 23.5 34.5 23.5H39.5C39.776 23.5 40 23.7235 40 24C40 24.2765 39.776 24.5 39.5 24.5Z" fill="#667084"/>
<path d="M31.5 26.5C31.224 26.5 31 26.2765 31 26V21C31 20.7235 31.224 20.5 31.5 20.5C31.776 20.5 32 20.7235 32 21V26C32 26.2765 31.776 26.5 31.5 26.5Z" fill="#667084"/>
<path d="M34.5 26.5C34.224 26.5 34 26.2765 34 26V21C34 20.7235 34.224 20.5 34.5 20.5C34.776 20.5 35 20.7235 35 21V26C35 26.2765 34.776 26.5 34.5 26.5Z" fill="#667084"/>
<path d="M35.5 26.5H30.5C30.224 26.5 30 26.2765 30 26C30 25.7235 30.224 25.5 30.5 25.5H35.5C35.776 25.5 36 25.7235 36 26C36 26.2765 35.776 26.5 35.5 26.5Z" fill="#667084"/>
<path d="M26.5 45.5C25.1215 45.5 24 44.3785 24 43C24 42.7235 24.224 42.5 24.5 42.5C24.776 42.5 25 42.7235 25 43C25 43.827 25.673 44.5 26.5 44.5C26.776 44.5 27 44.7235 27 45C27 45.2765 26.776 45.5 26.5 45.5Z" fill="#667084"/>
<path d="M24.5 26.5C24.224 26.5 24 26.2765 24 26C24 24.6215 25.1215 23.5 26.5 23.5C26.776 23.5 27 23.7235 27 24C27 24.2765 26.776 24.5 26.5 24.5C25.673 24.5 25 25.173 25 26C25 26.2765 24.776 26.5 24.5 26.5Z" fill="#667084"/>
<path d="M24.5 43.5C24.224 43.5 24 43.2765 24 43V26C24 25.7235 24.224 25.5 24.5 25.5C24.776 25.5 25 25.7235 25 26V43C25 43.2765 24.776 43.5 24.5 43.5Z" fill="#667084"/>
<path d="M41.5 40.5C41.224 40.5 41 40.2765 41 40V26C41 25.7235 41.224 25.5 41.5 25.5C41.776 25.5 42 25.7235 42 26V40C42 40.2765 41.776 40.5 41.5 40.5Z" fill="#667084"/>
<path d="M41.5 26.5C41.224 26.5 41 26.2765 41 26C41 25.173 40.327 24.5 39.5 24.5C39.224 24.5 39 24.2765 39 24C39 23.7235 39.224 23.5 39.5 23.5C40.8785 23.5 42 24.6215 42 26C42 26.2765 41.776 26.5 41.5 26.5Z" fill="#667084"/>
<path d="M39.5 45.5C39.224 45.5 39 45.2765 39 45C39 44.7235 39.224 44.5 39.5 44.5C40.327 44.5 41 43.827 41 43C41 42.7235 41.224 42.5 41.5 42.5C41.776 42.5 42 42.7235 42 43C42 44.3785 40.8785 45.5 39.5 45.5Z" fill="#667084"/>
<path d="M41.5 43.5C41.224 43.5 41 43.2765 41 43V40C41 39.7235 41.224 39.5 41.5 39.5C41.776 39.5 42 39.7235 42 40V43C42 43.2765 41.776 43.5 41.5 43.5Z" fill="#667084"/>
<path d="M39.5 45.5H26.5C26.224 45.5 26 45.2765 26 45C26 44.7235 26.224 44.5 26.5 44.5H39.5C39.776 44.5 40 44.7235 40 45C40 45.2765 39.776 45.5 39.5 45.5Z" fill="#667084"/>
<path d="M34.5 21.5H31.5C31.224 21.5 31 21.2765 31 21C31 20.7235 31.224 20.5 31.5 20.5H34.5C34.776 20.5 35 20.7235 35 21C35 21.2765 34.776 21.5 34.5 21.5Z" fill="#667084"/>
</svg>
