<svg width="65" height="64" viewBox="0 0 65 64" fill="none" xmlns="http://www.w3.org/2000/svg">
<rect width="64.6154" height="64" rx="6.66667" fill="#111827"/>
<path d="M21.0955 18.25C20.331 18.25 19.5838 18.4767 18.9482 18.9014C18.3126 19.3261 17.8172 19.9297 17.5247 20.6359C17.2321 21.3422 17.1556 22.1193 17.3047 22.869C17.4539 23.6188 17.822 24.3074 18.3625 24.848C18.903 25.3885 19.5917 25.7566 20.3414 25.9057C21.0912 26.0549 21.8683 25.9783 22.5745 25.6858C23.2808 25.3933 23.8844 24.8979 24.3091 24.2623C24.7338 23.6267 24.9605 22.8794 24.9605 22.115C24.9591 21.0903 24.5515 20.108 23.827 19.3835C23.1024 18.659 22.1201 18.2513 21.0955 18.25ZM21.0955 24.48C20.6277 24.48 20.1705 24.3413 19.7815 24.0814C19.3926 23.8216 19.0895 23.4522 18.9105 23.02C18.7315 22.5879 18.6847 22.1124 18.7759 21.6536C18.8672 21.1948 19.0924 20.7734 19.4232 20.4427C19.7539 20.1119 20.1753 19.8867 20.6341 19.7954C21.0928 19.7042 21.5684 19.751 22.0005 19.93C22.4327 20.109 22.802 20.4122 23.0619 20.8011C23.3218 21.19 23.4605 21.6472 23.4605 22.115C23.4631 22.4273 23.4039 22.7369 23.2862 23.0262C23.1685 23.3154 22.9948 23.5785 22.7749 23.8003C22.555 24.022 22.2934 24.198 22.0052 24.3181C21.7169 24.4382 21.4077 24.5 21.0955 24.5V24.48Z" fill="#667084"/>
<path d="M21.0955 29.135C20.331 29.135 19.5838 29.3617 18.9482 29.7864C18.3126 30.2111 17.8172 30.8147 17.5247 31.5209C17.2321 32.2272 17.1556 33.0043 17.3047 33.754C17.4539 34.5038 17.822 35.1924 18.3625 35.733C18.903 36.2735 19.5917 36.6416 20.3414 36.7907C21.0912 36.9399 21.8683 36.8633 22.5745 36.5708C23.2808 36.2783 23.8844 35.7829 24.3091 35.1473C24.7338 34.5117 24.9605 33.7644 24.9605 33C24.9591 31.9753 24.5515 30.993 23.827 30.2685C23.1024 29.5439 22.1201 29.1363 21.0955 29.135ZM21.0955 35.365C20.6277 35.365 20.1705 35.2263 19.7815 34.9664C19.3926 34.7065 19.0895 34.3372 18.9105 33.905C18.7315 33.4729 18.6847 32.9974 18.7759 32.5386C18.8672 32.0798 19.0924 31.6584 19.4232 31.3277C19.7539 30.9969 20.1753 30.7717 20.6341 30.6804C21.0928 30.5892 21.5684 30.636 22.0005 30.815C22.4327 30.994 22.802 31.2971 23.0619 31.6861C23.3218 32.075 23.4605 32.5322 23.4605 33C23.4605 33.3106 23.3993 33.6181 23.2804 33.905C23.1616 34.192 22.9874 34.4527 22.7678 34.6723C22.5482 34.8919 22.2875 35.0661 22.0005 35.185C21.7136 35.3038 21.406 35.365 21.0955 35.365Z" fill="#667084"/>
<path d="M21.0955 40C20.331 40 19.5838 40.2267 18.9482 40.6514C18.3126 41.0761 17.8172 41.6797 17.5247 42.3859C17.2321 43.0922 17.1556 43.8693 17.3047 44.619C17.4539 45.3688 17.822 46.0574 18.3625 46.598C18.903 47.1385 19.5917 47.5066 20.3414 47.6557C21.0912 47.8049 21.8683 47.7283 22.5745 47.4358C23.2808 47.1433 23.8844 46.6479 24.3091 46.0123C24.7338 45.3767 24.9605 44.6294 24.9605 43.865C24.9591 42.8403 24.5515 41.858 23.827 41.1335C23.1024 40.409 22.1201 40.0013 21.0955 40ZM21.0955 46.23C20.6277 46.23 20.1705 46.0913 19.7815 45.8314C19.3926 45.5716 19.0895 45.2022 18.9105 44.77C18.7315 44.3379 18.6847 43.8624 18.7759 43.4036C18.8672 42.9448 19.0924 42.5234 19.4232 42.1927C19.7539 41.8619 20.1753 41.6367 20.6341 41.5454C21.0928 41.4542 21.5684 41.501 22.0005 41.68C22.4327 41.859 22.802 42.1622 23.0619 42.5511C23.3218 42.94 23.4605 43.3972 23.4605 43.865C23.4631 44.1773 23.4039 44.4869 23.2862 44.7762C23.1685 45.0654 22.9948 45.3285 22.7749 45.5503C22.555 45.772 22.2934 45.948 22.0052 46.0681C21.7169 46.1882 21.4077 46.25 21.0955 46.25V46.23Z" fill="#667084"/>
<path d="M30.9604 24.42H44.4604C44.7724 24.4345 45.0842 24.3856 45.3768 24.2762C45.6694 24.1668 45.9368 23.9992 46.1628 23.7835C46.3888 23.5678 46.5686 23.3085 46.6915 23.0213C46.8144 22.7341 46.8778 22.4249 46.8778 22.1125C46.8778 21.8001 46.8144 21.491 46.6915 21.2037C46.5686 20.9165 46.3888 20.6572 46.1628 20.4415C45.9368 20.2258 45.6694 20.0582 45.3768 19.9488C45.0842 19.8394 44.7724 19.7905 44.4604 19.805H30.9604C30.367 19.8326 29.807 20.0878 29.3968 20.5175C28.9867 20.9472 28.7578 21.5185 28.7578 22.1125C28.7578 22.7066 28.9867 23.2778 29.3968 23.7075C29.807 24.1372 30.367 24.3924 30.9604 24.42ZM30.9604 21.305H44.4604C44.5718 21.2962 44.6838 21.3106 44.7893 21.3472C44.8949 21.3838 44.9917 21.4419 45.0738 21.5177C45.1558 21.5935 45.2213 21.6855 45.2661 21.7879C45.3108 21.8903 45.334 22.0008 45.334 22.1125C45.334 22.2242 45.3108 22.3348 45.2661 22.4371C45.2213 22.5395 45.1558 22.6315 45.0738 22.7073C44.9917 22.7832 44.8949 22.8412 44.7893 22.8778C44.6838 22.9144 44.5718 22.9288 44.4604 22.92H30.9604C30.7572 22.904 30.5675 22.812 30.4291 22.6623C30.2908 22.5126 30.214 22.3163 30.214 22.1125C30.214 21.9087 30.2908 21.7124 30.4291 21.5627C30.5675 21.413 30.7572 21.321 30.9604 21.305Z" fill="#667084"/>
<path d="M44.4604 30.69H30.9604C30.3477 30.69 29.7602 30.9334 29.327 31.3666C28.8938 31.7998 28.6504 32.3874 28.6504 33C28.6504 33.6127 28.8938 34.2002 29.327 34.6334C29.7602 35.0666 30.3477 35.31 30.9604 35.31H44.4604C45.073 35.31 45.6606 35.0666 46.0938 34.6334C46.527 34.2002 46.7704 33.6127 46.7704 33C46.7704 32.3874 46.527 31.7998 46.0938 31.3666C45.6606 30.9334 45.073 30.69 44.4604 30.69ZM44.4604 33.81H30.9604C30.7456 33.81 30.5395 33.7247 30.3876 33.5728C30.2357 33.4209 30.1504 33.2148 30.1504 33C30.1504 32.7852 30.2357 32.5792 30.3876 32.4272C30.5395 32.2753 30.7456 32.19 30.9604 32.19H44.4604C44.6752 32.19 44.8812 32.2753 45.0331 32.4272C45.1851 32.5792 45.2704 32.7852 45.2704 33C45.2704 33.2148 45.1851 33.4209 45.0331 33.5728C44.8812 33.7247 44.6752 33.81 44.4604 33.81Z" fill="#667084"/>
<path d="M44.4604 41.575H30.9604C30.367 41.6026 29.807 41.8578 29.3968 42.2875C28.9867 42.7172 28.7578 43.2884 28.7578 43.8825C28.7578 44.4765 28.9867 45.0478 29.3968 45.4775C29.807 45.9072 30.367 46.1624 30.9604 46.19H44.4604C44.7724 46.2045 45.0842 46.1556 45.3768 46.0462C45.6694 45.9368 45.9368 45.7692 46.1628 45.5535C46.3888 45.3378 46.5686 45.0785 46.6915 44.7913C46.8144 44.504 46.8778 44.1949 46.8778 43.8825C46.8778 43.5701 46.8144 43.2609 46.6915 42.9737C46.5686 42.6865 46.3888 42.4272 46.1628 42.2115C45.9368 41.9958 45.6694 41.8282 45.3768 41.7188C45.0842 41.6094 44.7724 41.5605 44.4604 41.575ZM44.4604 44.69H30.9604C30.7572 44.674 30.5675 44.582 30.4291 44.4323C30.2908 44.2826 30.214 44.0863 30.214 43.8825C30.214 43.6787 30.2908 43.4824 30.4291 43.3327C30.5675 43.183 30.7572 43.091 30.9604 43.075H44.4604C44.5718 43.0662 44.6838 43.0806 44.7893 43.1172C44.8949 43.1538 44.9917 43.2118 45.0738 43.2877C45.1558 43.3635 45.2213 43.4555 45.2661 43.5579C45.3108 43.6602 45.334 43.7708 45.334 43.8825C45.334 43.9942 45.3108 44.1047 45.2661 44.2071C45.2213 44.3095 45.1558 44.4015 45.0738 44.4773C44.9917 44.5531 44.8949 44.6112 44.7893 44.6478C44.6838 44.6844 44.5718 44.6988 44.4604 44.69Z" fill="#667084"/>
</svg>
