<svg width="65" height="64" viewBox="0 0 65 64" fill="none" xmlns="http://www.w3.org/2000/svg">
<rect width="64.496" height="64" rx="6.66667" fill="#111827"/>
<g clip-path="url(#clip0_3544_17813)">
<path d="M30.1433 44.0949C30.0874 44.4679 29.8606 44.7933 29.5301 44.9746C29.1996 45.1562 28.8035 45.1731 28.4588 45.02L23.3586 42.7671C23.1059 42.6558 22.9802 42.3702 23.0686 42.1085L25.6279 34.5044C26.0375 33.3047 27.2584 32.5812 28.5074 32.7979L29.3073 32.9415C30.6771 33.1804 31.6027 34.4736 31.3867 35.8476L30.1433 44.0949ZM28.8892 44.0441C28.9297 44.0632 28.9768 44.0612 29.0156 44.0388C29.0559 44.0175 29.0835 43.9777 29.0891 43.9323L30.3359 35.6919C30.3615 35.5144 30.3554 35.3338 30.3176 35.1585L29.4159 35.871C28.9805 36.2106 28.6556 36.6719 28.4828 37.1967L26.5286 43.0043L28.8892 44.0441ZM29.1215 33.9952L28.3219 33.8517C28.236 33.8363 28.1488 33.8287 28.0615 33.8287C27.4193 33.8304 26.8486 34.239 26.6401 34.8466L24.2346 41.9918L25.55 42.5725L27.4725 36.8601C27.7107 36.1381 28.1579 35.5029 28.7574 35.0355L29.7349 34.2622C29.5533 34.128 29.3437 34.0367 29.1215 33.9952Z" fill="#667084"/>
<path d="M47.6338 21.065L39.6714 23.4112C39.5637 23.4432 39.4636 23.4966 39.3775 23.5684L36.569 25.9082L36.1162 26.2868L32.4468 45.3598C32.2613 46.3293 31.6437 47.1614 30.7691 47.6193C29.8946 48.077 28.8589 48.1107 27.9565 47.7106L22.8401 45.4503C22.3417 46.0408 21.5194 46.2424 20.8042 45.9495L18.1055 44.8426C17.1968 44.4701 16.762 43.4317 17.134 42.523L22.0488 30.5259L21.6841 30.1046C21.0038 29.3167 21.0895 28.127 21.8755 27.4445L27.4988 22.5725C27.8774 22.2447 28.3707 22.0809 28.8699 22.117C29.3693 22.1532 29.8338 22.3863 30.1614 22.7648L31.0708 23.8169L33.1149 22.1139H33.118L36.9039 19.0344C37.0979 18.8762 37.3217 18.7586 37.5619 18.6883L46.1873 16.1461C47.1862 15.8527 48.234 16.4239 48.5287 17.4224L48.9104 18.7188C49.053 19.1992 48.9983 19.7164 48.7588 20.1567C48.5194 20.5968 48.1147 20.9237 47.6338 21.065ZM30.6066 24.9126L29.3544 23.4644C29.2121 23.2999 29.0102 23.1986 28.793 23.1827C28.576 23.1671 28.3614 23.2384 28.1969 23.3807L22.5736 28.2508C22.2318 28.5473 22.1947 29.0643 22.4903 29.4068L23.0693 30.0763C23.2011 30.2284 23.2363 30.4417 23.1601 30.6277L18.1206 42.9245C17.9717 43.2879 18.1458 43.7034 18.5092 43.8523L21.2089 44.9587C21.3836 45.0303 21.5796 45.0295 21.7539 44.9565C21.928 44.8836 22.0659 44.7442 22.1374 44.5694C22.1918 44.4361 22.2978 44.3305 22.4315 44.2765C22.565 44.2226 22.7147 44.2248 22.8465 44.2831L28.3873 46.7311C28.9927 46.9986 29.6868 46.9754 30.2729 46.6683C30.8592 46.3613 31.2734 45.8038 31.3984 45.1538L35.1037 25.8943C35.1271 25.7735 35.1916 25.6644 35.286 25.5856L35.4535 25.4459L33.4107 23.2555L31.3503 24.9714C31.1272 25.1569 30.7965 25.1298 30.6066 24.9106V24.9126ZM47.8877 19.0217L47.5069 17.7244C47.4456 17.5154 47.3036 17.3397 47.1124 17.2355C46.9213 17.1315 46.6968 17.1076 46.4881 17.1693L37.868 19.7069C37.7635 19.7376 37.6664 19.7887 37.5822 19.8572L34.2357 22.5767L36.2736 24.763L38.695 22.7446C38.8927 22.5793 39.1222 22.4566 39.3694 22.3841L47.3331 20.0396C47.7673 19.9114 48.0153 19.456 47.8877 19.0217Z" fill="#667084"/>
<path d="M45.2664 34.3955C44.2698 34.418 43.3074 34.0321 42.6024 33.3271C41.8975 32.6222 41.5114 31.6597 41.5341 30.6629C41.5341 28.963 43.5998 25.8934 44.4609 24.8999C44.6689 24.6758 44.9608 24.5487 45.2664 24.5487C45.5723 24.5487 45.8642 24.6758 46.0722 24.8999C46.9333 25.8934 48.9991 28.963 48.9991 30.6629C49.0215 31.6597 48.6356 32.6222 47.9307 33.3271C47.2258 34.0321 46.2633 34.418 45.2664 34.3955ZM45.2664 25.5973C44.326 26.682 42.6005 29.4285 42.6005 30.6629C42.5758 31.3773 42.8487 32.0698 43.3542 32.5753C43.8595 33.0808 44.5522 33.3537 45.2664 33.3291C45.9809 33.3537 46.6734 33.0808 47.1789 32.5753C47.6844 32.0698 47.9573 31.3773 47.9326 30.6629C47.9326 29.429 46.2067 26.6825 45.2664 25.5973Z" fill="#667084"/>
<path d="M33.7115 26.0137C33.8486 26.0488 33.9665 26.137 34.0388 26.2588C34.111 26.3808 34.1318 26.5265 34.0964 26.6637L33.8299 27.7079C33.7693 27.9437 33.557 28.1087 33.3136 28.109C33.2689 28.1092 33.2245 28.1036 33.1813 28.0924C32.896 28.0196 32.7236 27.7292 32.7964 27.4438L33.0629 26.3993C33.0978 26.2622 33.1857 26.1445 33.3073 26.0723C33.4288 26 33.5743 25.9788 33.7115 26.0137Z" fill="#667084"/>
<path d="M33.2553 29.4527L32.4996 32.652C32.4427 32.8924 32.2279 33.0625 31.9809 33.0625C31.9394 33.0628 31.8984 33.0579 31.8581 33.0481C31.5721 32.9808 31.3944 32.6944 31.461 32.4081L32.2165 29.2088C32.2604 29.0233 32.3998 28.8752 32.5824 28.8205C32.7649 28.7656 32.9629 28.8124 33.1018 28.943C33.2404 29.0738 33.299 29.2686 33.2553 29.4541V29.4527Z" fill="#667084"/>
</g>
<defs>
<clipPath id="clip0_3544_17813">
<rect width="32" height="32" fill="white" transform="matrix(-1 0 0 1 49 16)"/>
</clipPath>
</defs>
</svg>
