<svg width="65" height="64" viewBox="0 0 65 64" fill="none" xmlns="http://www.w3.org/2000/svg">
<rect width="64.6154" height="64" rx="6.66667" fill="#111827"/>
<path d="M42.4334 18.9375H37.2659V18C37.2659 17.7348 37.1605 17.4804 36.973 17.2929C36.7854 17.1054 36.5311 17 36.2659 17H27.7359C27.4706 17 27.2163 17.1054 27.0288 17.2929C26.8412 17.4804 26.7359 17.7348 26.7359 18V18.9375H21.5684C21.1705 18.9375 20.789 19.0955 20.5077 19.3768C20.2264 19.6581 20.0684 20.0397 20.0684 20.4375V47.5C20.0684 47.8978 20.2264 48.2794 20.5077 48.5607C20.789 48.842 21.1705 49 21.5684 49H42.4334C42.8312 49 43.2127 48.842 43.494 48.5607C43.7753 48.2794 43.9334 47.8978 43.9334 47.5V20.4375C43.9334 20.0397 43.7753 19.6581 43.494 19.3768C43.2127 19.0955 42.8312 18.9375 42.4334 18.9375ZM27.9859 18H36.0159C36.0822 18 36.1458 18.0263 36.1926 18.0732C36.2395 18.1201 36.2659 18.1837 36.2659 18.25V20.605C36.2659 20.6713 36.2395 20.7349 36.1926 20.7818C36.1458 20.8287 36.0822 20.855 36.0159 20.855H27.9859C27.9196 20.855 27.856 20.8287 27.8091 20.7818C27.7622 20.7349 27.7359 20.6713 27.7359 20.605V18.25C27.7359 18.1837 27.7622 18.1201 27.8091 18.0732C27.856 18.0263 27.9196 18 27.9859 18ZM42.9334 47.5C42.9334 47.6326 42.8807 47.7598 42.7869 47.8536C42.6931 47.9473 42.566 48 42.4334 48H21.5684C21.4358 48 21.3086 47.9473 21.2148 47.8536C21.121 47.7598 21.0684 47.6326 21.0684 47.5V20.4375C21.0684 20.3049 21.121 20.1777 21.2148 20.0839C21.3086 19.9902 21.4358 19.9375 21.5684 19.9375H26.7359V20.855C26.7359 20.9863 26.7617 21.1164 26.812 21.2377C26.8622 21.359 26.9359 21.4692 27.0288 21.5621C27.2163 21.7496 27.4706 21.855 27.7359 21.855H36.2659C36.5311 21.855 36.7854 21.7496 36.973 21.5621C37.1605 21.3746 37.2659 21.1202 37.2659 20.855V19.9375H42.4334C42.566 19.9375 42.6931 19.9902 42.7869 20.0839C42.8807 20.1777 42.9334 20.3049 42.9334 20.4375V47.5Z" fill="#667084"/>
<path d="M39.8122 29.1025L36.8322 28L35.6397 26.0975C35.5144 25.8992 35.3409 25.7358 35.1355 25.6226C34.93 25.5094 34.6993 25.45 34.4647 25.45H27.8347C26.5647 25.37 26.2872 27.1425 25.8972 28H24.7222C24.509 27.9999 24.2987 28.0489 24.1075 28.1433C23.9163 28.2376 23.7495 28.3747 23.6198 28.544C23.4902 28.7132 23.4014 28.9101 23.3602 29.1192C23.3189 29.3284 23.3265 29.5442 23.3822 29.75L24.0122 32.0825C24.0918 32.3769 24.2663 32.6368 24.5085 32.8221C24.7507 33.0073 25.0472 33.1077 25.3522 33.1075C25.4083 33.6173 25.6505 34.0884 26.0325 34.4307C26.4145 34.7729 26.9093 34.9622 27.4222 34.9622C27.935 34.9622 28.4299 34.7729 28.8118 34.4307C29.1938 34.0884 29.4361 33.6173 29.4922 33.1075H34.2697C34.5497 35.535 38.1247 35.5375 38.4047 33.1075C39.4722 33.185 40.6022 33.04 40.6547 31.72C40.6522 30.8375 40.8747 29.48 39.8122 29.1025ZM34.7922 26.6275L35.6472 28H29.6472V26.4475H34.4647C34.53 26.4477 34.5942 26.4643 34.6514 26.4957C34.7086 26.5272 34.757 26.5725 34.7922 26.6275ZM27.4747 26.695C27.5847 26.2975 28.3722 26.49 28.6547 26.445V28H26.9722L27.4747 26.695ZM27.4247 33.945C26.0072 33.945 26.0172 31.7875 27.4247 31.7825C28.8322 31.7775 28.8422 33.9375 27.4247 33.95V33.945ZM36.3372 33.945C34.9222 33.945 34.9297 31.79 36.3372 31.7825C37.7447 31.775 37.7497 33.9375 36.3372 33.95V33.945ZM39.6647 31.71C39.6797 32.3125 38.6147 32.04 38.2722 32.0975C38.119 31.7092 37.8526 31.3759 37.5075 31.141C37.1624 30.9061 36.7546 30.7805 36.3372 30.7805C35.9197 30.7805 35.5119 30.9061 35.1668 31.141C34.8217 31.3759 34.5553 31.7092 34.4022 32.0975H29.3597C28.7697 30.38 26.0822 30.3825 25.4897 32.0975C25.3842 32.1207 25.2738 32.1046 25.1794 32.0521C25.085 31.9996 25.0131 31.9144 24.9772 31.8125L24.3497 29.485C24.3315 29.4278 24.3274 29.367 24.3377 29.3078C24.3481 29.2486 24.3726 29.1928 24.4092 29.1452C24.4458 29.0976 24.4934 29.0595 24.5479 29.0342C24.6024 29.0089 24.6622 28.9972 24.7222 29H36.6522L39.4397 30.0325C39.5072 30.0633 39.5643 30.113 39.6042 30.1755C39.6441 30.2381 39.6651 30.3108 39.6647 30.385V31.71Z" fill="#667084"/>
<path d="M26.2054 43.58C26.0734 43.5801 25.9467 43.528 25.8529 43.435L24.8679 42.45C24.7896 42.3536 24.7499 42.2316 24.7566 42.1076C24.7633 41.9835 24.8159 41.8665 24.9042 41.7791C24.9925 41.6918 25.1101 41.6404 25.2342 41.635C25.3583 41.6296 25.4799 41.6706 25.5754 41.75L26.2054 42.38L28.1154 40.47C28.2104 40.3836 28.3349 40.3371 28.4632 40.3401C28.5916 40.343 28.7138 40.3951 28.8048 40.4857C28.8957 40.5763 28.9483 40.6984 28.9517 40.8267C28.955 40.955 28.909 41.0797 28.8229 41.175L26.5729 43.44C26.5243 43.487 26.4667 43.5236 26.4035 43.5476C26.3404 43.5717 26.273 43.5827 26.2054 43.58Z" fill="#667084"/>
<path d="M29.155 38.8125C29.2876 38.8125 29.4148 38.8652 29.5086 38.9589C29.6023 39.0527 29.655 39.1799 29.655 39.3125V44.41C29.655 44.5426 29.6023 44.6698 29.5086 44.7636C29.4148 44.8573 29.2876 44.91 29.155 44.91H24.125C23.9924 44.91 23.8652 44.8573 23.7714 44.7636C23.6777 44.6698 23.625 44.5426 23.625 44.41V39.3125C23.625 39.1799 23.6777 39.0527 23.7714 38.9589C23.8652 38.8652 23.9924 38.8125 24.125 38.8125H29.155ZM29.155 37.8125H24.125C23.7272 37.8125 23.3456 37.9705 23.0643 38.2518C22.783 38.5331 22.625 38.9147 22.625 39.3125V44.41C22.625 44.8078 22.783 45.1894 23.0643 45.4707C23.3456 45.752 23.7272 45.91 24.125 45.91H29.155C29.5528 45.91 29.9344 45.752 30.2157 45.4707C30.497 45.1894 30.655 44.8078 30.655 44.41V39.3125C30.655 38.9147 30.497 38.5331 30.2157 38.2518C29.9344 37.9705 29.5528 37.8125 29.155 37.8125Z" fill="#667084"/>
<path d="M40.9316 40.8H32.4316C32.299 40.8 32.1719 40.7473 32.0781 40.6536C31.9843 40.5598 31.9316 40.4326 31.9316 40.3C31.9316 40.1674 31.9843 40.0402 32.0781 39.9465C32.1719 39.8527 32.299 39.8 32.4316 39.8H40.9316C41.0642 39.8 41.1914 39.8527 41.2852 39.9465C41.379 40.0402 41.4316 40.1674 41.4316 40.3C41.4316 40.4326 41.379 40.5598 41.2852 40.6536C41.1914 40.7473 41.0642 40.8 40.9316 40.8Z" fill="#667084"/>
<path d="M37.4834 43.9225H32.4434C32.3108 43.9225 32.1836 43.8698 32.0898 43.7761C31.996 43.6823 31.9434 43.5551 31.9434 43.4225C31.9434 43.2899 31.996 43.1627 32.0898 43.0689C32.1836 42.9752 32.3108 42.9225 32.4434 42.9225H37.4834C37.616 42.9225 37.7431 42.9752 37.8369 43.0689C37.9307 43.1627 37.9834 43.2899 37.9834 43.4225C37.9834 43.5551 37.9307 43.6823 37.8369 43.7761C37.7431 43.8698 37.616 43.9225 37.4834 43.9225Z" fill="#667084"/>
</svg>
