<svg width="65" height="64" viewBox="0 0 65 64" fill="none" xmlns="http://www.w3.org/2000/svg">
<rect x="0.115234" width="64.496" height="64" rx="6.66667" fill="#111827"/>
<g clip-path="url(#clip0_3495_18720)">
<path d="M22.2367 44.4332C22.1207 44.3169 21.9598 44.2501 21.7957 44.2501C21.6316 44.2501 21.4707 44.3169 21.3547 44.4332C21.2386 44.5495 21.1719 44.7107 21.1719 44.8751C21.1719 45.0394 21.2386 45.2007 21.3547 45.3169C21.4707 45.4331 21.6316 45.5001 21.7957 45.5001C21.9598 45.5001 22.1207 45.4332 22.2367 45.3169C22.3528 45.2007 22.4196 45.0394 22.4196 44.8751C22.4196 44.7107 22.3528 44.5494 22.2367 44.4332Z" fill="#667084"/>
<path d="M46.2212 27.4336C46.1051 27.3173 45.9448 27.2505 45.7801 27.2505C45.616 27.2505 45.4551 27.3173 45.339 27.4336C45.2231 27.5499 45.1562 27.7111 45.1562 27.8755C45.1562 28.0399 45.223 28.2011 45.339 28.3173C45.4551 28.4336 45.616 28.5005 45.7801 28.5005C45.9448 28.5005 46.1051 28.4336 46.2212 28.3173C46.3377 28.2011 46.4045 28.0399 46.4045 27.8755C46.4045 27.7111 46.3377 27.5499 46.2212 27.4336Z" fill="#667084"/>
<path d="M48.687 16.1831C48.57 16.0659 48.4113 16 48.2458 16L32.8996 16.0008C32.5551 16.0008 32.2758 16.2807 32.2758 16.6258V18.4131L26.3624 20.0006C26.0296 20.0899 25.8321 20.4326 25.9213 20.766L28.986 32.2249L26.3348 34.8811C25.9973 34.3874 25.4308 34.0628 24.7899 34.0628H18.8012C17.7692 34.0628 16.9297 34.9039 16.9297 35.9377V46.125C16.9297 47.1589 17.7692 48 18.8012 48H24.7899C25.6666 48 26.4041 47.3927 26.6063 46.5763L27.348 47.2243C27.9206 47.7246 28.6543 48.0001 29.4141 48.0001H48.2459C48.5904 48.0001 48.8697 47.7202 48.8697 47.3751V16.625C48.8696 16.4593 48.804 16.3002 48.687 16.1831ZM25.4137 46.1251C25.4137 46.4696 25.1338 46.7501 24.7898 46.7501H18.8011C18.4571 46.7501 18.1773 46.4697 18.1773 46.1251V35.9378C18.1773 35.5932 18.4571 35.3128 18.8011 35.3128H21.1716V42.5125C21.1716 42.8576 21.451 43.1375 21.7955 43.1375C22.14 43.1375 22.4193 42.8576 22.4193 42.5125V35.3128H24.7899C25.1339 35.3128 25.4137 35.5932 25.4137 35.9378V46.1251H25.4137ZM27.2879 21.0462L32.2758 19.7072V22.0231L31.8577 22.1354C31.6978 22.1783 31.5616 22.283 31.4789 22.4266C31.3961 22.5701 31.3737 22.7407 31.4165 22.9008C31.6563 23.7971 31.1235 24.7217 30.2288 24.9619C30.0688 25.0049 29.9324 25.1097 29.8497 25.2536C29.767 25.3974 29.7448 25.5683 29.788 25.7286L32.2197 34.7497H30.9676L30.3224 32.2207C30.3019 32.1402 30.2659 32.066 30.2178 32.0015L27.2879 21.0462ZM32.2758 24.8893V30.1631L31.1379 25.9422C31.6132 25.6963 32.0022 25.3284 32.2758 24.8893ZM41.2382 46.75H29.4139C28.9557 46.75 28.5132 46.5839 28.1679 46.2822L26.6614 44.9659V36.3217L29.3849 33.5931L29.8789 35.5293C29.9495 35.806 30.1982 35.9995 30.4833 35.9995L42.7483 36.0002C43.2299 36.0002 43.6217 36.3927 43.6217 36.8752C43.6217 37.3577 43.2299 37.7502 42.7483 37.7502H36.4637C36.1192 37.7502 35.8399 38.0301 35.8399 38.3752C35.8399 38.7204 36.1192 39.0002 36.4637 39.0002H44.7009C45.1826 39.0002 45.5743 39.3927 45.5743 39.8752C45.5743 40.3577 45.1826 40.7502 44.7009 40.7502H36.4637C36.1192 40.7502 35.8399 41.0301 35.8399 41.3752C35.8399 41.7204 36.1192 42.0002 36.4637 42.0002H43.3661C43.8477 42.0002 44.2395 42.3927 44.2395 42.8752C44.2395 43.3577 43.8477 43.7502 43.3661 43.7502H36.4637C36.1192 43.7502 35.8399 44.0301 35.8399 44.3752C35.8399 44.7204 36.1192 45.0002 36.4637 45.0002H41.2382C41.7198 45.0002 42.1116 45.3927 42.1116 45.8752C42.1115 46.3575 41.7197 46.75 41.2382 46.75ZM47.622 46.75H43.1703C43.2912 46.4829 43.3592 46.1869 43.3592 45.875C43.3592 45.5631 43.2912 45.2671 43.1703 45H43.3661C44.5356 45 45.4871 44.0468 45.4871 42.8751C45.4871 42.5333 45.4057 42.2104 45.262 41.924C46.1601 41.6769 46.8219 40.8522 46.8219 39.8751C46.8219 39.4011 46.6661 38.9629 46.4032 38.6092V30.6879C46.4032 30.3428 46.1239 30.0629 45.7794 30.0629C45.4349 30.0629 45.1555 30.3428 45.1555 30.6879V37.7999C45.0089 37.7677 44.8569 37.7502 44.7008 37.7502H44.6804C44.8013 37.4832 44.8693 37.1871 44.8693 36.8752C44.8693 35.7035 43.9178 34.7503 42.7482 34.7503H41.7454C42.8103 34.2928 43.5581 33.2324 43.5581 32C43.5581 30.3507 42.2189 29.0089 40.5726 29.0089C38.9264 29.0089 37.5871 30.3507 37.5871 32C37.5871 33.2324 38.335 34.2928 39.3998 34.7503H35.9896V22.8664C37.1041 22.6231 37.9834 21.7422 38.2262 20.6256H42.9189C43.1617 21.7422 44.041 22.6231 45.1555 22.8664V24.8096C45.1555 25.1547 45.4348 25.4346 45.7793 25.4346C46.1238 25.4346 46.4032 25.1547 46.4032 24.8096V22.3084C46.4032 21.9633 46.1238 21.6834 45.7793 21.6834C44.8531 21.6834 44.0997 20.9285 44.0997 20.0006C44.0997 19.6555 43.8203 19.3756 43.4758 19.3756H37.6693C37.3249 19.3756 37.0455 19.6555 37.0455 20.0006C37.0455 20.9286 36.292 21.6834 35.3659 21.6834C35.0214 21.6834 34.742 21.9633 34.742 22.3084V34.7502H33.5235V17.2507L47.622 17.25V46.75ZM40.5727 33.7411C39.6144 33.7411 38.8349 32.9601 38.8349 32.0001C38.8349 31.0401 39.6145 30.2589 40.5727 30.2589C41.5309 30.2589 42.3106 31.04 42.3106 32C42.3106 32.96 41.531 33.7411 40.5727 33.7411Z" fill="#667084"/>
</g>
<defs>
<clipPath id="clip0_3495_18720">
<rect width="31.9409" height="32" fill="white" transform="translate(16.9297 16)"/>
</clipPath>
</defs>
</svg>
