<svg width="25" height="25" viewBox="0 0 25 25" fill="none" xmlns="http://www.w3.org/2000/svg">
<path opacity="0.4" d="M12.5 25C5.60625 25 0 19.3925 0 12.5C0 5.6075 5.60625 0 12.5 0C19.3925 0 25 5.6075 25 12.5C25 19.3925 19.3925 25 12.5 25Z" fill="#EBECEF"/>
<path d="M14.303 17.7759C14.0643 17.7759 13.8243 17.6846 13.6418 17.5021L9.28303 13.1646C9.10678 12.9884 9.00803 12.7496 9.00803 12.4996C9.00803 12.2509 9.10678 12.0121 9.28303 11.8359L13.6418 7.49588C14.008 7.13088 14.6005 7.13088 14.9668 7.49838C15.3318 7.86588 15.3305 8.45963 14.9643 8.82463L11.273 12.4996L14.9643 16.1746C15.3305 16.5396 15.3318 17.1321 14.9668 17.4996C14.7843 17.6846 14.543 17.7759 14.303 17.7759Z" fill="black"/>
</svg>
