<svg width="31" height="31" viewBox="0 0 31 31" fill="none" xmlns="http://www.w3.org/2000/svg" >
<path d="M29.578 28.1758H1.40882C0.63054 28.1758 0 28.8063 0 29.5853C0 30.3629 0.63054 30.9934 1.40882 30.9934H29.5773C30.3556 30.9934 30.9861 30.3629 30.9861 29.5853C30.9855 28.8063 30.355 28.1758 29.578 28.1758Z" fill="black"/>
<path d="M3.17054 24.513C2.39226 24.513 1.76172 25.1435 1.76172 25.9218C1.76172 26.7001 2.39226 27.3313 3.17054 27.3313H27.8183C28.5966 27.3313 29.2271 26.7001 29.2271 25.9218C29.2271 25.1435 28.5966 24.513 27.8183 24.513H27.4668V11.8362H27.8183C28.2081 11.8362 28.5221 11.5209 28.5221 11.1325C28.5221 10.744 28.2068 10.4287 27.8183 10.4287H3.17054C2.7814 10.4287 2.46679 10.744 2.46679 11.1325C2.46679 11.5209 2.78206 11.8362 3.17054 11.8362H3.52275V24.5123L3.17054 24.513ZM24.6491 11.8362V24.5123H20.424V11.8362H24.6491ZM17.6063 11.8362V24.5123H13.3812V11.8362H17.6063ZM6.33907 11.8362H10.5642V24.5123H6.33907V11.8362Z" fill="black"/>
<path d="M1.40885 9.16218H29.5774C29.582 9.16218 29.5872 9.16218 29.5912 9.16218C30.3701 9.16218 31 8.53164 31 7.75336C31 7.13469 30.6017 6.61034 30.0483 6.42039L16.0722 0.13148C15.7048 -0.03341 15.2847 -0.03341 14.9166 0.13148L0.831073 6.4692C0.224937 6.74225 -0.108141 7.4005 0.0316857 8.0495C0.170853 8.69851 0.74467 9.16218 1.40885 9.16218Z" fill="black"/>
</svg>
