<svg width="36" height="26" viewBox="0 0 36 26" fill="white" xmlns="http://www.w3.org/2000/svg">
<path d="M0 6.46094V4.5625C0 2.38788 1.76287 0.625 3.9375 0.625H32.0625C34.2371 0.625 36 2.38788 36 4.5625V6.46094C36 6.65507 35.8426 6.8125 35.6484 6.8125H0.351562C0.157429 6.8125 0 6.65507 0 6.46094Z" fill="black"/>
<path d="M36 9.41406V21.4375C36 23.6121 34.2371 25.375 32.0625 25.375H3.9375C1.76287 25.375 0 23.6121 0 21.4375V9.41406C0 9.21993 0.157429 9.0625 0.351562 9.0625H35.6484C35.8426 9.0625 36 9.21993 36 9.41406ZM27 18.625C27 19.2463 27.5037 19.75 28.125 19.75H29.25C29.8713 19.75 30.375 19.2463 30.375 18.625V17.5C30.375 16.8787 29.8713 16.375 29.25 16.375H28.125C27.5037 16.375 27 16.8787 27 17.5V18.625Z" fill="black"/>
</svg>
