<svg width="18" height="22" viewBox="0 0 18 22" fill="none" xmlns="http://www.w3.org/2000/svg">
<path d="M7.93085 6.29414C8.23783 6.29414 8.96714 6.49773 8.96714 6.49773C10.9429 6.97259 12.3337 8.88132 12.3337 11.0364V16.8369L12.7376 17.2626L13.0752 17.6181H2.69986L3.03739 17.2626L3.44136 16.8369V11.0364C3.44136 8.88137 4.83208 6.97259 6.80788 6.49773C6.80788 6.49773 7.58986 6.29414 7.84417 6.29414H7.93085ZM7.88751 3C7.12465 3 6.54143 3.61445 6.54143 4.41818V5.07996C3.98375 5.69464 2.0545 8.15273 2.0545 11.0364V16.2364L0.259766 18.1273V19.0727H15.5153V18.1273L13.7205 16.2364V11.0364C13.7205 8.15273 11.7912 5.69464 9.23359 5.07996V4.41818C9.23359 3.61445 8.65037 3 7.88751 3ZM9.68224 20.0182H6.09274C6.09274 21.0582 6.90028 21.9091 7.88751 21.9091C8.87474 21.9091 9.68224 21.0582 9.68224 20.0182Z" fill="white"/>
<path d="M16.9222 5C16.9222 7.50799 14.9895 9.5 12.6548 9.5C10.3202 9.5 8.38745 7.50799 8.38745 5C8.38745 2.49201 10.3202 0.5 12.6548 0.5C14.9895 0.5 16.9222 2.49201 16.9222 5Z" fill="#FAA004" stroke="#202940"/>
</svg>
