<svg width="58" height="58" viewBox="0 0 58 58" fill="none" xmlns="http://www.w3.org/2000/svg">
<path d="M43.9032 13.0543V55.0205C43.9032 56.666 42.5695 57.9996 40.9242 57.9996H6.35798C4.71257 57.9996 3.37891 56.6658 3.37891 55.0205V13.0543C3.37891 11.4089 4.71268 10.0752 6.35798 10.0752H40.9242C42.5696 10.0752 43.9032 11.409 43.9032 13.0543Z" fill="#3D9AE2"/>
<path d="M43.903 13.0543V54.1185H9.65095C8.00554 54.1185 6.67188 52.7848 6.67188 51.1394V10.0752H40.924C42.5693 10.0752 43.903 11.409 43.903 13.0543Z" fill="#5AAAE7"/>
<path d="M52.5056 45.9918L19.4283 56.0241C17.8535 56.5016 16.1905 55.6125 15.7129 54.0389L3.53192 13.8778C3.05319 12.3041 3.94234 10.64 5.51717 10.1624L6.1605 9.96726L38.5944 0.129009C40.1692 -0.348471 41.8322 0.540673 42.3098 2.11551L54.2157 41.365L54.4921 42.2764C54.9694 43.8501 54.0803 45.5144 52.5056 45.9918Z" fill="#96C8EF"/>
<path d="M54.2191 41.365L21.7841 51.202C20.2092 51.6795 18.5463 50.7903 18.0687 49.2167L6.16406 9.96726L38.598 0.129009C40.1728 -0.348471 41.8358 0.540673 42.3134 2.11551L54.2191 41.365Z" fill="#C2DFF6"/>
<path d="M24.8954 20.0965C26.2319 20.1833 26.8879 20.2697 27.1937 21.2779C27.4567 22.1449 27.1282 22.6856 26.16 22.9793C25.2596 23.2524 24.8216 22.9967 24.4348 22.7708C24.1757 22.6196 23.8821 22.4481 23.515 22.5594C22.9549 22.7293 22.698 23.4462 22.8507 23.9497C23.1012 24.7757 24.3775 25.2979 25.7755 25.182L25.8822 25.5335C26.0593 26.117 26.6779 26.4477 27.2614 26.2708C27.8449 26.0937 28.1756 25.4751 27.9986 24.8916L27.8849 24.5166C29.2606 23.6908 29.7539 22.2684 29.2385 20.5693C28.4928 18.1109 26.5207 17.9935 25.3424 17.9235L25.2047 17.9155C24.0336 17.848 23.507 17.7891 23.298 17.1003C23.1818 16.7171 23.2339 16.4394 23.4669 16.1996C23.7108 15.9484 24.0915 15.7958 24.3678 15.7118C25.0355 15.5093 25.4556 15.5861 25.7621 15.642C25.9802 15.6819 26.1863 15.7196 26.4108 15.6516C27.0422 15.46 27.1963 14.7104 27.0612 14.2654C26.774 13.3183 25.3296 13.4159 24.556 13.5419L24.4485 13.1873C24.2715 12.6038 23.6528 12.2732 23.0694 12.45C22.4859 12.6271 22.1553 13.2457 22.3322 13.8292L22.4799 14.3162C21.2484 15.1262 20.8129 16.3563 21.2533 17.8087C21.8878 19.901 23.5555 20.0093 24.8954 20.0965Z" fill="#3D9AE2"/>
<path d="M42.79 25.1985C42.6485 24.7322 42.1556 24.4692 41.6898 24.6104L16.5442 32.2378C16.0781 32.3793 15.8148 32.8718 15.9562 33.338C16.0717 33.7188 16.4215 33.9643 16.7999 33.9643C16.8847 33.9643 16.9711 33.9519 17.0562 33.9261L42.2018 26.2988C42.6681 26.1573 42.9313 25.6646 42.79 25.1985Z" fill="#3D9AE2"/>
<path d="M44.2588 30.0393C44.1173 29.573 43.6246 29.3101 43.1586 29.4512L18.013 37.0784C17.5468 37.2199 17.2835 37.7125 17.4249 38.1786C17.5405 38.5595 17.8903 38.805 18.2686 38.805C18.3535 38.805 18.4398 38.7926 18.525 38.7668L43.6706 31.1394C44.1367 30.998 44.4001 30.5054 44.2588 30.0393Z" fill="#3D9AE2"/>
<path d="M45.7274 34.8791C45.5859 34.413 45.093 34.1498 44.6272 34.2911L19.4817 41.9184C19.0156 42.0599 18.7523 42.5525 18.8937 43.0186C19.0092 43.3995 19.359 43.6449 19.7374 43.6449C19.8222 43.6449 19.9086 43.6326 19.9937 43.6068L45.1393 35.9794C45.6055 35.8378 45.8689 35.3453 45.7274 34.8791Z" fill="#3D9AE2"/>
<path d="M47.1963 39.7189C47.0548 39.2527 46.5621 38.9897 46.0961 39.1309L20.9505 46.7582C20.4843 46.8997 20.221 47.3923 20.3624 47.8584C20.478 48.2393 20.8278 48.4848 21.2061 48.4848C21.291 48.4848 21.3773 48.4724 21.4625 48.4466L46.6081 40.8192C47.0744 40.6776 47.3376 40.185 47.1963 39.7189Z" fill="#3D9AE2"/>
<path d="M17.1604 6.63196L15.4715 7.14354C14.9481 5.58751 13.4756 4.46432 11.7455 4.46432C9.57791 4.46432 7.81491 6.22732 7.81491 8.39496V18.592C7.81491 19.8587 8.84634 20.8901 10.113 20.8901C11.3798 20.8901 12.4112 19.8587 12.4112 18.592V8.41727C12.4112 8.30207 12.3841 8.19264 12.3336 8.09623C12.2171 7.86684 11.9784 7.70927 11.7032 7.70927C11.3127 7.70927 10.9952 8.02679 10.9952 8.41727V17.1688C10.9952 17.6557 10.6 18.0509 10.113 18.0509C9.62605 18.0509 9.23093 17.6558 9.23093 17.1688V8.41727C9.23093 7.05416 10.3401 5.94502 11.7032 5.94502C12.7735 5.94502 13.6862 6.62834 14.0295 7.58103C14.1237 7.84214 14.1753 8.12444 14.1753 8.41727V18.5919C14.1753 20.8312 12.3523 22.6541 10.113 22.6541C7.87257 22.6541 6.05078 20.8311 6.05078 18.5919V8.39496C6.05078 5.25469 8.60527 2.7002 11.7455 2.7002C14.2707 2.7002 16.417 4.35263 17.1604 6.63196Z" fill="#1E81CE"/>
</svg>
