<svg width="24" height="24" viewBox="0 0 24 24" fill="none" xmlns="http://www.w3.org/2000/svg">
<path fill-rule="evenodd" clip-rule="evenodd" d="M18.0303 7.96967C18.3232 8.26256 18.3232 8.73744 18.0303 9.03033L11.0303 16.0303C10.7374 16.3232 10.2626 16.3232 9.96967 16.0303L5.96967 12.0303C5.67678 11.7374 5.67678 11.2626 5.96967 10.9697C6.26256 10.6768 6.73744 10.6768 7.03033 10.9697L10.5 14.4393L16.9697 7.96967C17.2626 7.67678 17.7374 7.67678 18.0303 7.96967Z" fill="#ACB2BD"/>
<path fill-rule="evenodd" clip-rule="evenodd" d="M2.75 12C2.75 18.937 5.063 21.25 12 21.25C18.937 21.25 21.25 18.937 21.25 12C21.25 5.063 18.937 2.75 12 2.75C5.063 2.75 2.75 5.063 2.75 12Z" stroke="#ACB2BD" stroke-width="1.5" stroke-linecap="round" stroke-linejoin="round"/>
</svg>
