<svg width="20" height="20" viewBox="0 0 20 20" fill="none" xmlns="http://www.w3.org/2000/svg">
<g clip-path="url(#clip0_2618_13465)">
<path d="M11.3869 0H-0.000793457V19.2H11.3869V0ZM5.13737 15.5549H3.95716V13.3174H5.13737V15.5549ZM5.13737 11.0437H3.95716V8.80621H5.13737V11.0437ZM5.13737 6.5687H3.95716V4.33118H5.13737V6.5687ZM8.7135 15.5557H7.53402V13.3174H8.71423L8.7135 15.5557ZM8.7135 11.0445H7.53402V8.80621H8.71423L8.7135 11.0445ZM8.7135 6.56945H7.53402V4.33118H8.71423L8.7135 6.56945Z" fill="#D9DBE0"/>
<path d="M19.1996 16.7823V7.86768H12.3596V19.1998H16.8732C17.4901 19.1998 18.0817 18.9452 18.5179 18.4918C18.9542 18.0385 19.1994 17.4236 19.1996 16.7823ZM16.5617 15.5909H14.2693V14.4002H16.5617V15.5909ZM16.5617 12.595H14.2693V11.3682H16.5617V12.595Z" fill="#D9DBE0"/>
</g>
<defs>
<clipPath id="clip0_2618_13465">
<rect width="19.2" height="19.2" fill="white"/>
</clipPath>
</defs>
</svg>
