<svg width="150" height="150" viewBox="0 0 150 150" fill="none" xmlns="http://www.w3.org/2000/svg">
<g clip-path="url(#clip0_2146_12098)">
<path d="M75 25C65.1109 25 55.4439 27.9324 47.2215 33.4265C38.999 38.9206 32.5904 46.7295 28.806 55.8658C25.0216 65.0021 24.0315 75.0555 25.9607 84.7545C27.89 94.4536 32.652 103.363 39.6447 110.355C46.6373 117.348 55.5464 122.11 65.2455 124.039C74.9445 125.969 84.9979 124.978 94.1342 121.194C103.27 117.41 111.079 111.001 116.573 102.779C122.068 94.5561 125 84.8891 125 75C125 61.7392 119.732 49.0215 110.355 39.6447C100.979 30.2678 88.2608 25 75 25ZM75 116.667C66.7591 116.667 58.7033 114.223 51.8512 109.645C44.9992 105.066 39.6587 98.5587 36.505 90.9451C33.3514 83.3316 32.5262 74.9538 34.1339 66.8712C35.7417 58.7887 39.71 51.3644 45.5372 45.5372C51.3644 39.71 58.7887 35.7417 66.8712 34.1339C74.9538 32.5262 83.3315 33.3514 90.9451 36.505C98.5587 39.6587 105.066 44.9992 109.645 51.8512C114.223 58.7033 116.667 66.7591 116.667 75C116.667 80.4717 115.589 85.8899 113.495 90.9451C111.401 96.0004 108.332 100.594 104.463 104.463C100.594 108.332 96.0004 111.401 90.9451 113.495C85.8899 115.589 80.4717 116.667 75 116.667Z" fill="#D72F2F"/>
<path d="M75 83.6251C73.5634 83.6251 72.1857 83.0544 71.1698 82.0386C70.154 81.0228 69.5833 79.645 69.5833 78.2084V53.2084C69.5833 51.7718 70.154 50.3941 71.1698 49.3783C72.1857 48.3624 73.5634 47.7917 75 47.7917C76.4366 47.7917 77.8143 48.3624 78.8302 49.3783C79.846 50.3941 80.4167 51.7718 80.4167 53.2084V78.2084C80.4167 79.645 79.846 81.0228 78.8302 82.0386C77.8143 83.0544 76.4366 83.6251 75 83.6251Z" fill="#D72F2F"/>
<path d="M74.7917 102.167C78.2435 102.167 81.0417 99.3685 81.0417 95.9167C81.0417 92.465 78.2435 89.6667 74.7917 89.6667C71.3399 89.6667 68.5417 92.465 68.5417 95.9167C68.5417 99.3685 71.3399 102.167 74.7917 102.167Z" fill="#D72F2F"/>
</g>
<defs>
<clipPath id="clip0_2146_12098">
<rect width="150" height="150" fill="white"/>
</clipPath>
</defs>
</svg>
