<svg width="14" height="14" viewBox="0 0 14 14" fill="none" xmlns="http://www.w3.org/2000/svg">
<path d="M13.6027 6.82763C13.55 6.8274 13.4977 6.83845 13.449 6.86013C13.4002 6.88182 13.3559 6.91371 13.3186 6.95396C13.2813 6.99422 13.2518 7.04204 13.2317 7.09468C13.2116 7.14732 13.2013 7.20373 13.2016 7.26066V11.1988C13.2009 11.7132 13.0113 12.2063 12.6744 12.57C12.3374 12.9337 11.8806 13.1383 11.4041 13.139H2.59988C2.12334 13.1383 1.66651 12.9337 1.32955 12.57C0.992586 12.2063 0.803007 11.7132 0.802382 11.1988V7.19614C0.802382 7.08129 0.760114 6.97115 0.684876 6.88993C0.609638 6.80872 0.507594 6.76309 0.401191 6.76309C0.294789 6.76309 0.192744 6.80872 0.117506 6.88993C0.0422682 6.97115 0 7.08129 0 7.19614V11.198C0.00166179 11.9406 0.275696 12.6522 0.76217 13.1773C1.24864 13.7024 1.90797 13.9982 2.59594 14H11.4041C12.092 13.9982 12.7514 13.7024 13.2378 13.1773C13.7243 12.6522 13.9983 11.9406 14 11.198V7.25982C13.9998 7.14585 13.958 7.03656 13.8836 6.95565C13.8092 6.87474 13.7083 6.82874 13.6027 6.82763Z" fill="#D9DBE0"/>
<path d="M7.28641 0.128238C7.21155 0.0470905 7.1101 0.00102901 7.00401 2.19345e-05C6.95138 -8.58307e-05 6.89927 0.0112076 6.85076 0.0332308C6.80225 0.055254 6.75833 0.0875607 6.72159 0.128238L4.17207 2.88018C4.10009 2.96206 4.06057 3.07105 4.06195 3.18392C4.06332 3.29679 4.10548 3.40462 4.17942 3.48444C4.25337 3.56426 4.35327 3.60976 4.45784 3.61124C4.56241 3.61272 4.66338 3.57007 4.73925 3.49238L6.60281 1.48255L6.60281 10.2623C6.60281 10.3771 6.64508 10.4873 6.72032 10.5685C6.79556 10.6497 6.89761 10.6953 7.00401 10.6953C7.11041 10.6953 7.21246 10.6497 7.2877 10.5685C7.36293 10.4873 7.4052 10.3771 7.4052 10.2623L7.4052 1.48255L9.26798 3.49238C9.34384 3.57007 9.44482 3.61272 9.54938 3.61124C9.65395 3.60976 9.75385 3.56426 9.8278 3.48444C9.90175 3.40462 9.9439 3.29679 9.94528 3.18392C9.94665 3.07105 9.90714 2.96206 9.83516 2.88018L7.28641 0.128238Z" fill="#D9DBE0"/>
</svg>
