<svg width="33" height="33" viewBox="0 0 33 33" fill="none" xmlns="http://www.w3.org/2000/svg">
<path d="M9.83333 22.8073H23.1667C23.4333 22.8073 23.6333 22.6849 23.7667 22.4402C23.9 22.1956 23.8778 21.962 23.7 21.7396L20.0333 16.8349C19.9 16.657 19.7222 16.568 19.5 16.568C19.2778 16.568 19.1 16.657 18.9667 16.8349L15.5 21.4727L13.0333 18.1695C12.9 17.9916 12.7222 17.9026 12.5 17.9026C12.2778 17.9026 12.1 17.9916 11.9667 18.1695L9.3 21.7396C9.12222 21.962 9.1 22.1956 9.23333 22.4402C9.36667 22.6849 9.56667 22.8073 9.83333 22.8073ZM7.16667 28.1456C6.43333 28.1456 5.80533 27.8845 5.28267 27.3622C4.76089 26.8391 4.5 26.2105 4.5 25.4764V6.79213C4.5 6.0581 4.76089 5.42951 5.28267 4.90635C5.80533 4.38408 6.43333 4.12294 7.16667 4.12294H25.8333C26.5667 4.12294 27.1947 4.38408 27.7173 4.90635C28.2391 5.42951 28.5 6.0581 28.5 6.79213V25.4764C28.5 26.2105 28.2391 26.8391 27.7173 27.3622C27.1947 27.8845 26.5667 28.1456 25.8333 28.1456H7.16667ZM7.16667 25.4764H25.8333V6.79213H7.16667V25.4764Z" fill="#9AA1AE"/>
</svg>
