<svg width="24" height="24" viewBox="0 0 24 24" fill="none" xmlns="http://www.w3.org/2000/svg">
<g clip-path="url(#clip0_3416_17482)">
<path d="M12 4C10.4178 4 8.87104 4.46919 7.55544 5.34824C6.23985 6.22729 5.21447 7.47672 4.60897 8.93853C4.00347 10.4003 3.84504 12.0089 4.15372 13.5607C4.4624 15.1126 5.22433 16.538 6.34315 17.6569C7.46197 18.7757 8.88743 19.5376 10.4393 19.8463C11.9911 20.155 13.5997 19.9965 15.0615 19.391C16.5233 18.7855 17.7727 17.7602 18.6518 16.4446C19.5308 15.129 20 13.5822 20 12C20 9.87827 19.1571 7.84344 17.6569 6.34315C16.1566 4.84285 14.1217 4 12 4ZM11.0067 8C11.0067 7.73478 11.112 7.48043 11.2996 7.29289C11.4871 7.10536 11.7415 7 12.0067 7C12.2719 7 12.5262 7.10536 12.7138 7.29289C12.9013 7.48043 13.0067 7.73478 13.0067 8V12.5933C13.0067 12.7247 12.9808 12.8547 12.9305 12.976C12.8803 13.0973 12.8066 13.2076 12.7138 13.3004C12.6209 13.3933 12.5107 13.467 12.3894 13.5172C12.268 13.5675 12.138 13.5933 12.0067 13.5933C11.8753 13.5933 11.7453 13.5675 11.624 13.5172C11.5027 13.467 11.3924 13.3933 11.2996 13.3004C11.2067 13.2076 11.133 13.0973 11.0828 12.976C11.0325 12.8547 11.0067 12.7247 11.0067 12.5933V8ZM12 17C11.7732 17 11.5515 16.9327 11.3629 16.8068C11.1744 16.6808 11.0274 16.5017 10.9406 16.2921C10.8538 16.0826 10.8311 15.8521 10.8754 15.6296C10.9196 15.4072 11.0288 15.2029 11.1892 15.0425C11.3496 14.8822 11.5539 14.7729 11.7763 14.7287C11.9987 14.6845 12.2293 14.7072 12.4388 14.794C12.6483 14.8807 12.8274 15.0277 12.9534 15.2163C13.0794 15.4048 13.1467 15.6265 13.1467 15.8533C13.1467 16.1574 13.0259 16.4491 12.8108 16.6641C12.5958 16.8792 12.3041 17 12 17Z" fill="#D72F2F"/>
</g>
<defs>
<clipPath id="clip0_3416_17482">
<rect width="24" height="24" fill="white"/>
</clipPath>
</defs>
</svg>
