<svg width="65" height="64" viewBox="0 0 65 64" fill="none" xmlns="http://www.w3.org/2000/svg">
<rect x="0.153809" width="64.6154" height="64" rx="6.66667" fill="#202940"/>
<path d="M22.3653 39V39.25C22.3653 39.7141 22.5515 40.1592 22.8828 40.4874C23.2142 40.8156 23.6636 41 24.1322 41H30.6946C31.1632 41 31.6126 40.8156 31.944 40.4874C32.2753 40.1592 32.4615 39.7141 32.4615 39.25V39C32.4818 38.1372 32.2121 37.2922 31.695 36.5976C31.1779 35.903 30.4425 35.3982 29.6043 35.1625C30.0987 34.7233 30.4469 34.1458 30.6029 33.5064C30.7589 32.8669 30.7153 32.1957 30.4778 31.5813C30.2404 30.967 29.8204 30.4384 29.2732 30.0656C28.7261 29.6927 28.0776 29.4931 27.4134 29.4931C26.7493 29.4931 26.1007 29.6927 25.5536 30.0656C25.0064 30.4384 24.5864 30.967 24.349 31.5813C24.1115 32.1957 24.0679 32.8669 24.2239 33.5064C24.3799 34.1458 24.7281 34.7233 25.2225 35.1625C24.3844 35.3982 23.6489 35.903 23.1318 36.5976C22.6147 37.2922 22.345 38.1372 22.3653 39ZM27.4134 30.5C27.8627 30.5 28.3019 30.632 28.6755 30.8792C29.049 31.1264 29.3402 31.4778 29.5121 31.889C29.6841 32.3001 29.729 32.7525 29.6414 33.1889C29.5537 33.6254 29.3374 34.0263 29.0197 34.341C28.702 34.6557 28.2972 34.8699 27.8566 34.9568C27.4159 35.0436 26.9592 34.999 26.5441 34.8287C26.129 34.6584 25.7742 34.37 25.5246 34C25.275 33.63 25.1418 33.195 25.1418 32.75C25.1418 32.1533 25.3811 31.581 25.8071 31.159C26.2331 30.737 26.8109 30.5 27.4134 30.5ZM26.4038 36H28.423C28.8232 35.9911 29.2211 36.0626 29.5926 36.2103C29.9642 36.3579 30.3016 36.5785 30.5847 36.8589C30.8678 37.1393 31.0905 37.4735 31.2396 37.8415C31.3886 38.2095 31.4608 38.6036 31.4519 39V39.25C31.4519 39.4489 31.3721 39.6397 31.2301 39.7803C31.0881 39.921 30.8955 40 30.6946 40H24.1322C23.9313 40 23.7387 39.921 23.5967 39.7803C23.4547 39.6397 23.3749 39.4489 23.3749 39.25V39C23.366 38.6036 23.4382 38.2095 23.5872 37.8415C23.7363 37.4735 23.959 37.1393 24.2421 36.8589C24.5252 36.5785 24.8626 36.3579 25.2342 36.2103C25.6057 36.0626 26.0036 35.9911 26.4038 36Z" fill="#B0B7CA"/>
<path d="M43.0624 35.5C42.9285 35.5 42.8001 35.5527 42.7054 35.6464C42.6108 35.7402 42.5576 35.8674 42.5576 36V42.25C42.5576 42.4489 42.4778 42.6397 42.3358 42.7803C42.1938 42.921 42.0012 43 41.8004 43H21.1033C20.9024 43 20.7098 42.921 20.5678 42.7803C20.4258 42.6397 20.346 42.4489 20.346 42.25V27.75C20.346 27.5511 20.4258 27.3603 20.5678 27.2197C20.7098 27.079 20.9024 27 21.1033 27H32.209C32.3429 27 32.4713 26.9473 32.566 26.8536C32.6606 26.7598 32.7138 26.6326 32.7138 26.5C32.7138 26.3674 32.6606 26.2402 32.566 26.1464C32.4713 26.0527 32.3429 26 32.209 26H21.1033C20.6347 26 20.1853 26.1844 19.8539 26.5126C19.5226 26.8408 19.3364 27.2859 19.3364 27.75V42.25C19.3364 42.7141 19.5226 43.1592 19.8539 43.4874C20.1853 43.8156 20.6347 44 21.1033 44H41.8004C42.269 44 42.7184 43.8156 43.0497 43.4874C43.381 43.1592 43.5672 42.7141 43.5672 42.25V36C43.5672 35.8674 43.514 35.7402 43.4193 35.6464C43.3247 35.5527 43.1963 35.5 43.0624 35.5Z" fill="#B0B7CA"/>
<path d="M42.6207 26.1475L39.4455 29.2925L37.4465 27.3125C37.3517 27.2187 37.2233 27.166 37.0893 27.166C36.9554 27.166 36.8269 27.2187 36.7322 27.3125C36.6374 27.4063 36.5842 27.5336 36.5842 27.6663C36.5842 27.7989 36.6374 27.9262 36.7322 28.02L39.0871 30.3525C39.1341 30.3993 39.1899 30.4364 39.2514 30.4617C39.3129 30.4871 39.3789 30.5001 39.4455 30.5C39.5792 30.4994 39.7072 30.4464 39.8014 30.3525L43.3351 26.8525C43.4219 26.7572 43.4684 26.6325 43.465 26.5042C43.4616 26.3759 43.4085 26.2538 43.3167 26.1632C43.2249 26.0726 43.1015 26.0205 42.9719 26.0176C42.8423 26.0146 42.7166 26.0612 42.6207 26.1475Z" fill="#089430"/>
<path d="M46.162 23.3675C46.1495 23.252 46.0968 23.1445 46.013 23.0633C45.9292 22.9821 45.8194 22.9323 45.7026 22.9225C44.7397 22.7991 43.7997 22.5398 42.911 22.1525C41.9931 21.7739 41.138 21.2607 40.3744 20.63C40.2813 20.5457 40.1597 20.4989 40.0336 20.4989C39.9075 20.4989 39.7859 20.5457 39.6929 20.63C38.9294 21.2609 38.0742 21.7742 37.1562 22.1525C36.2722 22.5382 35.3374 22.7975 34.3798 22.9225C34.2625 22.9317 34.1521 22.9813 34.0678 23.0625C33.9835 23.1438 33.9304 23.2516 33.9179 23.3675C33.8951 23.58 33.3903 28.5725 34.6372 31.0375C36.1289 33.9825 39.6853 35.635 39.8342 35.705C39.9007 35.7355 39.973 35.7512 40.0462 35.7512C40.1195 35.7512 40.1918 35.7355 40.2582 35.705C40.4072 35.635 43.9635 33.9825 45.4552 31.0375C46.6895 28.5725 46.1847 23.58 46.162 23.3675ZM44.539 30.59C43.4057 32.8325 40.7908 34.3 40.0336 34.6925C39.2764 34.3 36.6615 32.8325 35.5282 30.59C34.5994 28.75 34.7861 25.0675 34.877 23.8625C35.797 23.7037 36.6949 23.4386 37.5525 23.0725C38.4365 22.7022 39.27 22.2235 40.0336 21.6475C40.7972 22.2235 41.6307 22.7022 42.5147 23.0725C43.3723 23.4386 44.2703 23.7037 45.1902 23.8625C45.2836 25.0675 45.4704 28.75 44.539 30.59Z" fill="#089430"/>
<path d="M34.9855 41H40.0336C40.1675 41 40.2959 40.9473 40.3906 40.8536C40.4852 40.7598 40.5384 40.6326 40.5384 40.5C40.5384 40.3674 40.4852 40.2402 40.3906 40.1464C40.2959 40.0527 40.1675 40 40.0336 40H34.9855C34.8516 40 34.7232 40.0527 34.6286 40.1464C34.5339 40.2402 34.4807 40.3674 34.4807 40.5C34.4807 40.6326 34.5339 40.7598 34.6286 40.8536C34.7232 40.9473 34.8516 41 34.9855 41Z" fill="#B0B7CA"/>
<path d="M34.9855 38H38.0144C38.1483 38 38.2767 37.9473 38.3713 37.8536C38.466 37.7598 38.5192 37.6326 38.5192 37.5C38.5192 37.3674 38.466 37.2402 38.3713 37.1464C38.2767 37.0527 38.1483 37 38.0144 37H34.9855C34.8516 37 34.7232 37.0527 34.6286 37.1464C34.5339 37.2402 34.4807 37.3674 34.4807 37.5C34.4807 37.6326 34.5339 37.7598 34.6286 37.8536C34.7232 37.9473 34.8516 38 34.9855 38Z" fill="#B0B7CA"/>
</svg>
