<svg width="32" height="32" viewBox="0 0 32 32" fill="none" xmlns="http://www.w3.org/2000/svg">
<path d="M16 0C24.8363 0 32 7.16375 32 16C32 24.8363 24.8363 32 16 32C7.16375 32 0 24.8363 0 16C0 7.16375 7.16375 0 16 0ZM12.8406 11.5662L10.8219 9.5475C10.7387 9.46147 10.6393 9.39285 10.5293 9.34566C10.4194 9.29846 10.3011 9.27363 10.1815 9.27261C10.0619 9.27159 9.94322 9.29441 9.83249 9.33972C9.72175 9.38504 9.62115 9.45195 9.53655 9.53655C9.45195 9.62115 9.38504 9.72176 9.33972 9.83249C9.29441 9.94322 9.2716 10.0619 9.27261 10.1815C9.27363 10.3011 9.29846 10.4194 9.34566 10.5293C9.39285 10.6393 9.46147 10.7387 9.5475 10.8219L11.5662 12.8406C11.7362 13.0049 11.9639 13.0958 12.2003 13.0938C12.4366 13.0918 12.6627 12.997 12.8299 12.8299C12.997 12.6627 13.0918 12.4366 13.0938 12.2003C13.0958 11.9639 13.0049 11.7362 12.8406 11.5662ZM25.125 16C25.125 15.761 25.03 15.5317 24.861 15.3627C24.692 15.1937 24.4628 15.0988 24.2238 15.0988H21.3694C21.1305 15.0989 20.9014 15.1939 20.7325 15.3629C20.5636 15.5319 20.4688 15.7611 20.4688 16C20.4688 16.2389 20.5636 16.4681 20.7325 16.6371C20.9014 16.8061 21.1305 16.9011 21.3694 16.9013H24.2238C24.4628 16.9013 24.692 16.8063 24.861 16.6373C25.03 16.4683 25.125 16.239 25.125 16ZM19.1594 20.4338L21.1781 22.4525C21.2613 22.5385 21.3607 22.6071 21.4707 22.6543C21.5806 22.7015 21.6989 22.7264 21.8185 22.7274C21.9381 22.7284 22.0568 22.7056 22.1675 22.6603C22.2782 22.615 22.3788 22.5481 22.4634 22.4634C22.5481 22.3788 22.615 22.2782 22.6603 22.1675C22.7056 22.0568 22.7284 21.9381 22.7274 21.8185C22.7264 21.6989 22.7015 21.5806 22.6543 21.4707C22.6071 21.3607 22.5385 21.2613 22.4525 21.1781L20.4338 19.1594C20.2638 18.9951 20.0361 18.9042 19.7997 18.9062C19.5634 18.9082 19.3373 19.003 19.1701 19.1701C19.003 19.3373 18.9082 19.5634 18.9062 19.7997C18.9042 20.0361 18.9951 20.2638 19.1594 20.4338ZM19.1594 12.8406C19.3285 13.0093 19.5577 13.104 19.7966 13.104C20.0354 13.104 20.2646 13.0093 20.4338 12.8406L22.4525 10.8219C22.5385 10.7387 22.6071 10.6393 22.6543 10.5293C22.7015 10.4194 22.7264 10.3011 22.7274 10.1815C22.7284 10.0619 22.7056 9.94322 22.6603 9.83249C22.615 9.72176 22.5481 9.62115 22.4634 9.53655C22.3788 9.45195 22.2782 9.38504 22.1675 9.33972C22.0568 9.29441 21.9381 9.27159 21.8185 9.27261C21.6989 9.27363 21.5806 9.29846 21.4707 9.34566C21.3607 9.39285 21.2613 9.46147 21.1781 9.5475L19.1594 11.5662C18.9907 11.7354 18.896 11.9646 18.896 12.2034C18.896 12.4423 18.9907 12.6715 19.1594 12.8406ZM15.0969 24.2237C15.0969 24.4628 15.1918 24.692 15.3608 24.861C15.5299 25.03 15.7591 25.125 15.9981 25.125C16.2372 25.125 16.4664 25.03 16.6354 24.861C16.8044 24.692 16.8994 24.4628 16.8994 24.2237V21.3694C16.8994 21.1303 16.8044 20.9011 16.6354 20.7321C16.4664 20.5631 16.2372 20.4681 15.9981 20.4681C15.7591 20.4681 15.5299 20.5631 15.3608 20.7321C15.1918 20.9011 15.0969 21.1303 15.0969 21.3694V24.2237ZM15.0969 10.6306C15.0969 10.8697 15.1918 11.0989 15.3608 11.2679C15.5299 11.4369 15.7591 11.5319 15.9981 11.5319C16.2372 11.5319 16.4664 11.4369 16.6354 11.2679C16.8044 11.0989 16.8994 10.8697 16.8994 10.6306V7.77625C16.8994 7.53722 16.8044 7.30799 16.6354 7.13897C16.4664 6.96995 16.2372 6.875 15.9981 6.875C15.7591 6.875 15.5299 6.96995 15.3608 7.13897C15.1918 7.30799 15.0969 7.53722 15.0969 7.77625V10.6306ZM9.54563 22.4525C9.71464 22.6215 9.94383 22.7164 10.1828 22.7164C10.4218 22.7164 10.651 22.6215 10.82 22.4525L12.8388 20.4338C13.003 20.2638 13.0939 20.0361 13.0919 19.7997C13.0899 19.5634 12.9951 19.3373 12.828 19.1701C12.6608 19.003 12.4347 18.9082 12.1984 18.9062C11.962 18.9042 11.7343 18.9951 11.5644 19.1594L9.54563 21.1781C9.37691 21.3474 9.28233 21.5767 9.28268 21.8157C9.28304 22.0547 9.37829 22.2837 9.5475 22.4525H9.54563ZM6.875 16C6.875 16.239 6.96995 16.4683 7.13897 16.6373C7.30799 16.8063 7.53722 16.9013 7.77625 16.9013H10.6306C10.8695 16.9011 11.0986 16.8061 11.2675 16.6371C11.4364 16.4681 11.5312 16.2389 11.5312 16C11.5312 15.7611 11.4364 15.5319 11.2675 15.3629C11.0986 15.1939 10.8695 15.0989 10.6306 15.0988H7.77625C7.53722 15.0988 7.30799 15.1937 7.13897 15.3627C6.96995 15.5317 6.875 15.761 6.875 16Z" fill="#1DB954"/>
</svg>
