<svg width="75" height="28" viewBox="0 0 75 28" fill="none" xmlns="http://www.w3.org/2000/svg">
<path d="M26.5669 21.2073C25.1672 19.8682 22.9167 19.8682 21.517 21.2073C20.1173 22.5463 20.1173 24.6993 21.517 26.0383C22.9167 27.3773 25.1672 27.3773 26.5669 26.0383C27.9666 24.6993 27.9666 22.5463 26.5669 21.2073ZM22.8618 24.778C22.2031 24.1479 22.2031 23.1239 22.8618 22.4675C23.5205 21.8374 24.5908 21.8374 25.2769 22.4675C25.9356 23.0977 25.9356 24.1216 25.2769 24.778C24.5908 25.4082 23.5205 25.4082 22.8618 24.778Z" fill="white"/>
<path d="M19.4037 16.5075H8.37076C3.78743 16.5075 0.0823353 12.963 0.0823353 8.57837C0.0823353 4.1937 3.78743 0.649211 8.37076 0.649211H19.4037C23.987 0.649211 27.6921 4.21996 27.6921 8.57837C27.6921 12.9368 23.9596 16.5075 19.4037 16.5075ZM7.8493 2.7234C4.52844 2.7234 1.92116 2.2508 2.27794 8.47335C2.27794 8.49961 2.27794 8.52586 2.27794 8.57837C2.27794 11.7815 5.02246 14.3808 8.37076 14.3808H19.4037C22.752 14.3808 25.4691 11.7815 25.4691 8.57837C25.4691 5.3752 22.752 2.77591 19.4037 2.77591H7.93164L7.8493 2.7234Z" fill="white"/>
<path d="M10.731 27.036H8.61776C5.46158 27.036 2.66218 24.9881 1.83882 22.0737C0.603792 17.7678 0 13.3044 0 8.81468V7.34437C0 3.64234 3.15619 0.622955 7.02595 0.622955C10.1821 0.622955 12.9815 2.67089 13.8049 5.58525L17.51 18.5555C18.0863 20.6034 17.6472 22.7301 16.3298 24.4104C14.9576 26.0645 12.9266 27.036 10.731 27.036ZM3.97954 21.5223C4.55589 23.5178 6.4496 24.9093 8.61776 24.9093H10.731C12.2405 24.9093 13.6402 24.2529 14.5459 23.0977C15.4516 21.9424 15.7535 20.4984 15.3693 19.1068L11.6642 6.13661C11.0878 4.14119 9.19411 2.74965 7.02595 2.74965C4.39122 2.74965 2.22305 4.79758 2.22305 7.34437V8.81468C2.22305 13.1206 2.7994 17.374 3.97954 21.5223Z" fill="white"/>
<path d="M1.20758 8.55212C1.78393 8.55212 2.27794 8.10578 2.2505 7.52815C2.2505 7.23934 2.2505 6.97679 2.2505 6.793C2.47006 2.35582 4.85778 2.74965 7.82186 2.74965L7.93164 2.77591H19.4037C22.4227 2.77591 24.9476 4.9026 25.3867 7.65943C25.4691 8.15829 25.9082 8.52586 26.4296 8.52586H26.5394C27.1981 8.52586 27.6921 7.9745 27.5823 7.34437C26.9785 3.56357 23.5479 0.649211 19.4037 0.649211H8.37076C4.22655 0.649211 0.795908 3.56357 0.192116 7.37062C0.0823353 8.00075 0.576347 8.55212 1.20758 8.55212Z" fill="white"/>
<path d="M8.86477 25.907C8.86477 25.3556 8.42565 24.9093 7.87675 24.8568C7.73952 24.8305 7.6023 24.8305 7.51996 24.8043C5.84581 24.4104 4.47355 23.1764 4.00699 21.5486C2.82685 17.4002 2.22305 13.1468 2.2505 8.84093V7.47564C2.2505 5.34895 3.70509 3.45855 5.87325 2.93344C6.47705 2.77591 7.05339 2.74965 7.62974 2.82842C8.34331 2.90718 8.89222 2.46084 8.89222 1.7782C8.89222 1.22683 8.48054 0.780488 7.90419 0.727977C7.62974 0.701722 7.32784 0.675466 7.05339 0.675466C3.15619 0.622955 0 3.64234 0 7.31811V8.78842C0 13.2781 0.603792 17.7416 1.83882 22.0737C2.5524 24.5417 4.63822 26.3796 7.19062 26.8785C7.3004 26.9047 7.43762 26.931 7.6023 26.931C8.28842 27.0097 8.86477 26.5371 8.86477 25.907Z" fill="white"/>
<path d="M25.2495 24.778C24.728 25.2769 23.9596 25.3819 23.3283 25.1193C22.999 24.9618 22.5873 25.0143 22.3403 25.2769L22.2854 25.3031C21.8463 25.7232 21.9835 26.4584 22.5599 26.7209C23.8772 27.2986 25.4965 27.0623 26.5669 26.0383C27.6647 24.9881 27.8842 23.4652 27.2804 22.205C27.006 21.6536 26.265 21.5223 25.7984 21.9424L25.7435 21.9949C25.4691 22.2575 25.4416 22.6251 25.5788 22.9401C25.8807 23.544 25.771 24.2792 25.2495 24.778Z" fill="white"/>
<path d="M31.0009 27.0425H32.7589V21.6427C33.2734 20.395 34.2167 19.7201 35.5245 19.7201C35.7603 19.7201 36.0176 19.7405 36.232 19.7814V18.0633C36.0605 18.0224 35.8675 18.0019 35.5888 18.0019C34.2382 18.0019 33.252 18.5337 32.5873 19.7405L32.3301 18.2474H31.0009V27.0425Z" fill="white"/>
<path d="M41.8812 27.288C43.2533 27.288 44.411 26.9607 45.29 26.3471V24.629C44.3895 25.3858 43.2962 25.7744 42.0098 25.7744C39.9731 25.7744 38.6653 24.8335 38.4295 23.2177H45.6973C45.7402 22.87 45.7831 22.4813 45.7831 22.0927C45.7831 19.6178 44.0036 18.0019 41.3238 18.0019C38.4724 18.0019 36.5857 19.8223 36.5857 22.5836C36.5857 25.488 38.6439 27.288 41.8812 27.288ZM38.4509 21.8063C38.7082 20.3541 39.7373 19.5155 41.3023 19.5155C42.8888 19.5155 43.875 20.3337 44.068 21.8063H38.4509Z" fill="white"/>
<path d="M47.6881 27.0425H49.4461V21.295C50.0464 20.2109 50.8611 19.5769 51.9545 19.5769C53.0693 19.5769 53.734 20.2109 53.734 21.6427V27.0425H55.492V21.5404C55.492 21.3768 55.492 21.2336 55.4705 21.0905C56.0494 20.1291 56.9069 19.5769 57.9575 19.5769C59.1152 19.5769 59.7798 20.2314 59.7798 21.6427V27.0425H61.5378V21.5404C61.5378 19.2087 60.4444 18.0019 58.3648 18.0019C57.1428 18.0019 56.0065 18.4315 55.1489 19.6178C54.6773 18.5337 53.7125 18.0019 52.3619 18.0019C51.0326 18.0019 50.025 18.5133 49.2532 19.5564L49.0174 18.2474H47.6881V27.0425Z" fill="white"/>
<path d="M64.8458 16.0793C65.5318 16.0793 66.0463 15.5884 66.0463 14.9338C66.0463 14.2793 65.5318 13.7884 64.8458 13.7884C64.1597 13.7884 63.6452 14.2793 63.6452 14.9338C63.6452 15.5884 64.1597 16.0793 64.8458 16.0793ZM63.9668 27.0425H65.7248V18.2474H63.9668V27.0425Z" fill="white"/>
<path d="M71.0981 27.288C73.6493 27.288 75 26.3062 75 24.5063C75 23.0131 74.0781 22.2359 72.2558 21.9086L71.0981 21.7041C69.7903 21.4791 69.3615 21.2132 69.3615 20.6405C69.3615 19.9246 70.0476 19.4951 71.3768 19.4951C72.5345 19.4951 73.6493 19.8223 74.4426 20.4155V18.6974C73.7351 18.2678 72.5988 18.0019 71.3768 18.0019C69.0185 18.0019 67.6464 19.0042 67.6464 20.7427C67.6464 22.0927 68.4825 22.9109 70.3048 23.2381L71.4626 23.4427C72.7489 23.6677 73.2849 23.9336 73.2849 24.5881C73.2849 25.3449 72.5345 25.7949 71.0767 25.7949C69.6831 25.7949 68.4182 25.3858 67.5606 24.6699V26.4289C68.3539 26.9607 69.6402 27.288 71.0981 27.288Z" fill="white"/>
</svg>
