<svg width="35" height="34" viewBox="0 0 35 34" fill="none" xmlns="http://www.w3.org/2000/svg">
<path d="M11.6658 11.522C11.9326 11.2519 12.3589 11.2222 12.6608 11.4378L12.7398 11.5028L23.677 21.788C23.979 22.072 23.9878 22.5411 23.6967 22.8358C23.4299 23.1059 23.0036 23.1356 22.7018 22.9199L22.6228 22.855L11.6855 12.5698C11.3835 12.2858 11.3747 11.8167 11.6658 11.522Z" fill="#089430"/>
<path d="M22.2126 13.9029C22.204 13.4938 22.537 13.1553 22.9564 13.1469C23.3377 13.1392 23.6591 13.407 23.7208 13.7632L23.7314 13.8725L23.9089 22.3061C23.9168 22.6792 23.6407 22.9933 23.2743 23.0524L23.1619 23.0623L14.5161 23.1999C14.0966 23.2065 13.7511 22.8802 13.7442 22.471C13.738 22.099 14.0139 21.7866 14.3792 21.7278L14.4913 21.718L22.3745 21.5921L22.2126 13.9029Z" fill="#089430"/>
</svg>
