<svg width="24" height="24" viewBox="0 0 24 24" fill="none" xmlns="http://www.w3.org/2000/svg">
<path d="M10.4839 17.2445H4.01135" stroke="white" stroke-width="1.5" stroke-linecap="round" stroke-linejoin="round"/>
<path fill-rule="evenodd" clip-rule="evenodd" d="M14.5452 17.2454C14.5452 19.2872 15.2261 19.9672 17.267 19.9672C19.3079 19.9672 19.9887 19.2872 19.9887 17.2454C19.9887 15.2037 19.3079 14.5237 17.267 14.5237C15.2261 14.5237 14.5452 15.2037 14.5452 17.2454Z" stroke="white" stroke-width="1.5" stroke-linecap="round" stroke-linejoin="round"/>
<path d="M13.5168 6.75591H19.9884" stroke="white" stroke-width="1.5" stroke-linecap="round" stroke-linejoin="round"/>
<path fill-rule="evenodd" clip-rule="evenodd" d="M9.45546 6.75457C9.45546 4.71367 8.77457 4.03278 6.73367 4.03278C4.69188 4.03278 4.01099 4.71367 4.01099 6.75457C4.01099 8.79635 4.69188 9.47635 6.73367 9.47635C8.77457 9.47635 9.45546 8.79635 9.45546 6.75457Z" stroke="white" stroke-width="1.5" stroke-linecap="round" stroke-linejoin="round"/>
</svg>
