<svg width="36" height="35" viewBox="0 0 36 35" fill="none" xmlns="http://www.w3.org/2000/svg">
<path d="M23.4593 23.1956C23.1875 23.4608 22.7609 23.4829 22.4633 23.2619L22.3856 23.1956L11.6489 12.7208C11.3524 12.4315 11.3524 11.9626 11.6489 11.6733C11.9206 11.4082 12.3472 11.3861 12.6448 11.607L12.7225 11.6733L23.4593 22.1482C23.7557 22.4374 23.7557 22.9064 23.4593 23.1956Z" fill="#FAA004"/>
<path d="M12.9634 20.6271C12.9643 21.0362 12.6251 21.3685 12.2059 21.3694C11.8247 21.3702 11.5085 21.0968 11.4535 20.7398L11.445 20.6303L11.4264 12.1988C11.4256 11.8258 11.7074 11.5168 12.0746 11.4643L12.1872 11.4565L20.8302 11.4739C21.2495 11.4748 21.5887 11.8071 21.5879 12.2162C21.5871 12.588 21.3055 12.8953 20.9393 12.9475L20.8271 12.9553L12.9464 12.9398L12.9634 20.6271Z" fill="#FAA004"/>
</svg>
