<svg width="65" height="64" viewBox="0 0 65 64" fill="none" xmlns="http://www.w3.org/2000/svg">
<rect x="0.153809" width="64.6154" height="64" rx="6.66667" fill="#202940"/>
<path d="M24.9579 24.8368C25.3171 24.4767 25.8909 24.437 26.2972 24.7246L26.4036 24.8111L41.1268 38.5248C41.5334 38.9035 41.5453 39.529 41.1534 39.9218C40.7941 40.282 40.2203 40.3216 39.814 40.0341L39.7076 39.9475L24.9844 26.2339C24.5779 25.8552 24.566 25.2297 24.9579 24.8368Z" fill="#089430"/>
<path d="M39.1564 28.0114C39.1448 27.4658 39.5931 27.0145 40.1577 27.0033C40.6709 26.9931 41.1036 27.3502 41.1867 27.8251L41.2009 27.9708L41.4399 39.2156C41.4505 39.7131 41.0788 40.1319 40.5857 40.2107L40.4343 40.2238L28.7957 40.4073C28.2311 40.4162 27.7659 39.9811 27.7567 39.4355C27.7483 38.9395 28.1196 38.5229 28.6114 38.4446L28.7623 38.4315L39.3744 38.2636L39.1564 28.0114Z" fill="#089430"/>
</svg>
