<svg width="66" height="64" viewBox="0 0 66 64" fill="none" xmlns="http://www.w3.org/2000/svg">
<rect x="0.634521" width="64.6154" height="64" rx="6.66667" fill="#202940"/>
<path d="M40.2905 40.2608C39.9247 40.6144 39.3504 40.6438 38.9498 40.3492L38.8452 40.2608L24.3919 26.2943C23.9928 25.9087 23.9928 25.2834 24.3919 24.8977C24.7578 24.5442 25.332 24.5147 25.7326 24.8093L25.8372 24.8977L40.2905 38.8642C40.6896 39.2498 40.6896 39.8752 40.2905 40.2608Z" fill="#D72F2F"/>
<path d="M26.1609 36.8362C26.1621 37.3816 25.7056 37.8247 25.1411 37.8259C24.628 37.8269 24.2024 37.4624 24.1283 36.9863L24.1169 36.8404L24.0919 25.5983C24.0908 25.101 24.4702 24.689 24.9645 24.6191L25.116 24.6086L36.7509 24.6319C37.3153 24.633 37.7719 25.0761 37.7708 25.6215C37.7697 26.1174 37.3907 26.5271 36.8977 26.5966L36.7466 26.6071L26.138 26.5864L26.1609 36.8362Z" fill="#D72F2F"/>
</svg>
