<svg width="68" height="65" viewBox="0 0 68 65" fill="none" xmlns="http://www.w3.org/2000/svg">
<rect x="0.168213" y="0.216187" width="67.242" height="64.5766" rx="6.66667" fill="#1A2035"/>
<path d="M23.2826 39.5675V39.8198C23.2826 40.2881 23.4763 40.7372 23.8211 41.0684C24.1659 41.3995 24.6336 41.5856 25.1213 41.5856H31.9505C32.4382 41.5856 32.9058 41.3995 33.2506 41.0684C33.5955 40.7372 33.7892 40.2881 33.7892 39.8198V39.5675C33.8103 38.697 33.5297 37.8443 32.9915 37.1435C32.4534 36.4427 31.6881 35.9333 30.8158 35.6955C31.3303 35.2523 31.6927 34.6696 31.855 34.0244C32.0173 33.3792 31.972 32.7019 31.7249 32.082C31.4778 31.4621 31.0407 30.9288 30.4713 30.5526C29.9019 30.1764 29.227 29.975 28.5359 29.975C27.8447 29.975 27.1699 30.1764 26.6005 30.5526C26.0311 30.9288 25.5939 31.4621 25.3469 32.082C25.0998 32.7019 25.0544 33.3792 25.2168 34.0244C25.3791 34.6696 25.7414 35.2523 26.256 35.6955C25.3837 35.9333 24.6184 36.4427 24.0802 37.1435C23.5421 37.8443 23.2615 38.697 23.2826 39.5675ZM28.5359 30.991C29.0034 30.991 29.4605 31.1241 29.8492 31.3736C30.238 31.623 30.541 31.9776 30.7199 32.3924C30.8988 32.8073 30.9457 33.2638 30.8544 33.7041C30.7632 34.1445 30.5381 34.5491 30.2075 34.8666C29.8769 35.1841 29.4556 35.4003 28.9971 35.4879C28.5385 35.5755 28.0632 35.5305 27.6312 35.3587C27.1993 35.1869 26.8301 34.8959 26.5703 34.5225C26.3106 34.1492 26.1719 33.7103 26.1719 33.2612C26.1719 32.6591 26.421 32.0817 26.8643 31.6559C27.3076 31.2302 27.9089 30.991 28.5359 30.991ZM27.4852 36.5405H29.5865C30.003 36.5316 30.4171 36.6037 30.8037 36.7527C31.1903 36.9016 31.5415 37.1243 31.8361 37.4072C32.1307 37.6901 32.3625 38.0273 32.5176 38.3986C32.6727 38.7699 32.7478 39.1676 32.7385 39.5675V39.8198C32.7385 40.0205 32.6555 40.213 32.5077 40.3549C32.3599 40.4968 32.1595 40.5766 31.9505 40.5766H25.1213C24.9123 40.5766 24.7118 40.4968 24.5641 40.3549C24.4163 40.213 24.3333 40.0205 24.3333 39.8198V39.5675C24.3239 39.1676 24.3991 38.7699 24.5542 38.3986C24.7093 38.0273 24.9411 37.6901 25.2357 37.4072C25.5302 37.1243 25.8814 36.9016 26.2681 36.7527C26.6547 36.6037 27.0688 36.5316 27.4852 36.5405Z" fill="#B0B7CA"/>
<path d="M44.821 36.036C44.6817 36.036 44.5481 36.0892 44.4496 36.1838C44.3511 36.2784 44.2957 36.4067 44.2957 36.5405V42.8468C44.2957 43.0475 44.2127 43.24 44.0649 43.3819C43.9171 43.5239 43.7167 43.6036 43.5077 43.6036H21.9693C21.7603 43.6036 21.5598 43.5239 21.4121 43.3819C21.2643 43.24 21.1813 43.0475 21.1813 42.8468V28.2162C21.1813 28.0155 21.2643 27.823 21.4121 27.6811C21.5598 27.5392 21.7603 27.4594 21.9693 27.4594H33.5265C33.6658 27.4594 33.7994 27.4063 33.898 27.3117C33.9965 27.2171 34.0518 27.0887 34.0518 26.9549C34.0518 26.8211 33.9965 26.6928 33.898 26.5982C33.7994 26.5036 33.6658 26.4504 33.5265 26.4504H21.9693C21.4816 26.4504 21.014 26.6365 20.6691 26.9676C20.3243 27.2988 20.1306 27.7479 20.1306 28.2162V42.8468C20.1306 43.3151 20.3243 43.7643 20.6691 44.0954C21.014 44.4266 21.4816 44.6126 21.9693 44.6126H43.5077C43.9954 44.6126 44.463 44.4266 44.8078 44.0954C45.1527 43.7643 45.3464 43.3151 45.3464 42.8468V36.5405C45.3464 36.4067 45.291 36.2784 45.1925 36.1838C45.094 36.0892 44.9604 36.036 44.821 36.036Z" fill="#B0B7CA"/>
<path d="M44.3615 26.5993L41.0572 29.7726L38.9769 27.7748C38.8783 27.6801 38.7446 27.6269 38.6052 27.6269C38.4658 27.6269 38.3321 27.6801 38.2335 27.7748C38.135 27.8694 38.0796 27.9978 38.0796 28.1317C38.0796 28.2656 38.135 28.394 38.2335 28.4886L40.6842 30.8422C40.7331 30.8894 40.7912 30.9268 40.8552 30.9524C40.9192 30.9779 40.9879 30.991 41.0572 30.991C41.1963 30.9904 41.3295 30.9369 41.4275 30.8422L45.1048 27.3106C45.1952 27.2145 45.2436 27.0887 45.2401 26.9592C45.2365 26.8298 45.1813 26.7066 45.0857 26.6152C44.9902 26.5237 44.8617 26.4711 44.7269 26.4681C44.5921 26.4652 44.4613 26.5121 44.3615 26.5993Z" fill="#B0B7CA"/>
<path d="M48.0467 23.7942C48.0337 23.6777 47.9789 23.5692 47.8916 23.4872C47.8044 23.4053 47.6902 23.3551 47.5686 23.3452C46.5666 23.2207 45.5883 22.9591 44.6635 22.5683C43.7084 22.1863 42.8185 21.6684 42.0238 21.0321C41.9269 20.947 41.8004 20.8998 41.6692 20.8998C41.5379 20.8998 41.4114 20.947 41.3146 21.0321C40.5201 21.6687 39.6302 22.1866 38.6748 22.5683C37.7549 22.9575 36.7821 23.2191 35.7855 23.3452C35.6634 23.3545 35.5486 23.4045 35.4609 23.4865C35.3731 23.5685 35.3179 23.6773 35.3048 23.7942C35.2812 24.0086 34.7559 29.0461 36.0534 31.5333C37.6058 34.5048 41.3067 36.1722 41.4617 36.2429C41.5308 36.2736 41.6061 36.2895 41.6823 36.2895C41.7585 36.2895 41.8338 36.2736 41.9029 36.2429C42.0579 36.1722 45.7589 34.5048 47.3112 31.5333C48.5956 29.0461 48.0703 24.0086 48.0467 23.7942ZM46.3577 31.0818C45.1784 33.3445 42.4572 34.8252 41.6692 35.2212C40.8812 34.8252 38.16 33.3445 36.9806 31.0818C36.014 29.2252 36.2084 25.5095 36.3029 24.2937C37.2603 24.1335 38.1948 23.8659 39.0872 23.4966C40.0071 23.1229 40.8746 22.6399 41.6692 22.0587C42.4638 22.6399 43.3312 23.1229 44.2512 23.4966C45.1436 23.8659 46.078 24.1335 47.0354 24.2937C47.1326 25.5095 47.327 29.2252 46.3577 31.0818Z" fill="#B0B7CA"/>
<path d="M36.416 41.5855H41.6692C41.8086 41.5855 41.9422 41.5324 42.0407 41.4378C42.1392 41.3432 42.1946 41.2148 42.1946 41.081C42.1946 40.9472 42.1392 40.8189 42.0407 40.7243C41.9422 40.6297 41.8086 40.5765 41.6692 40.5765H36.416C36.2766 40.5765 36.143 40.6297 36.0445 40.7243C35.946 40.8189 35.8906 40.9472 35.8906 41.081C35.8906 41.2148 35.946 41.3432 36.0445 41.4378C36.143 41.5324 36.2766 41.5855 36.416 41.5855Z" fill="#B0B7CA"/>
<path d="M36.416 38.5586H39.5679C39.7072 38.5586 39.8409 38.5054 39.9394 38.4108C40.0379 38.3162 40.0933 38.1879 40.0933 38.0541C40.0933 37.9203 40.0379 37.7919 39.9394 37.6973C39.8409 37.6027 39.7072 37.5496 39.5679 37.5496H36.416C36.2766 37.5496 36.143 37.6027 36.0445 37.6973C35.946 37.7919 35.8906 37.9203 35.8906 38.0541C35.8906 38.1879 35.946 38.3162 36.0445 38.4108C36.143 38.5054 36.2766 38.5586 36.416 38.5586Z" fill="#B0B7CA"/>
</svg>
