<svg width="25" height="25" viewBox="0 0 25 25" fill="none" xmlns="http://www.w3.org/2000/svg">
<path fill-rule="evenodd" clip-rule="evenodd" d="M6.37538 10.4992C8.11801 14.3303 11.219 17.3761 15.0739 19.0265L15.0861 19.0317L15.8308 19.3669C16.7791 19.7935 17.8938 19.4905 18.5018 18.6409L19.7443 16.9047C19.8202 16.7987 19.8006 16.6512 19.6998 16.569L17.5306 14.8023C17.4228 14.7145 17.2642 14.7349 17.1818 14.8473L16.3375 15.9974C16.1325 16.2768 15.7622 16.3738 15.4485 16.2305C12.566 14.9134 10.2497 12.5748 8.94524 9.66464C8.80327 9.34791 8.8994 8.97409 9.17606 8.76709L10.3152 7.91476C10.4265 7.83148 10.4468 7.67139 10.3598 7.56252L8.60964 5.37225C8.5283 5.27045 8.38229 5.25068 8.27726 5.32723L6.5483 6.58739C5.70123 7.20478 5.40292 8.33961 5.83529 9.29982L6.3748 10.498C6.37499 10.4984 6.37519 10.4988 6.37538 10.4992ZM14.4968 20.3833C10.3082 18.5882 6.93919 15.2777 5.0457 11.1141L5.04456 11.1116L4.50392 9.91091C3.7833 8.31056 4.28048 6.41917 5.69226 5.39019L7.42122 4.13004C8.15649 3.59414 9.17851 3.73254 9.74791 4.44513L11.4981 6.6354C12.107 7.39748 11.9652 8.51809 11.186 9.10107L10.5332 9.58947C11.6359 11.7496 13.3834 13.514 15.523 14.6272L16.0067 13.9682C16.5842 13.1815 17.6941 13.0383 18.4489 13.6531L20.618 15.4198C21.3241 15.9949 21.461 17.0271 20.9297 17.7695L19.6872 19.5057C18.6739 20.9216 16.8161 21.4266 15.2356 20.7156L14.4968 20.3833Z" fill="#ACB2BD"/>
</svg>
