<svg width="150" height="150" viewBox="0 0 150 150" fill="none" xmlns="http://www.w3.org/2000/svg">
<path d="M118.562 114.688C118.888 117.568 118.558 120.485 117.597 123.22C116.636 125.955 115.069 128.437 113.013 130.481C110.958 132.525 108.466 134.077 105.725 135.022C102.985 135.967 100.066 136.28 97.1875 135.938H52.8125C49.5565 136.033 46.3124 135.502 43.2562 134.375C42.0959 133.913 41.1668 133.008 40.6734 131.861C40.1799 130.713 40.1625 129.417 40.625 128.256C41.0875 127.096 41.9919 126.167 43.1394 125.673C44.2869 125.18 45.5834 125.163 46.7437 125.625C48.6932 126.3 50.7506 126.61 52.8125 126.538H97.1875C105.706 126.538 109.187 123.1 109.187 114.663C109.429 111.722 109.059 108.764 108.102 105.974C107.144 103.184 105.619 100.622 103.623 98.4496C101.627 96.2774 99.2031 94.5419 96.5036 93.3524C93.804 92.1628 90.8875 91.5449 87.9375 91.5375C87.3228 91.5103 86.7195 91.3619 86.1623 91.101C85.6051 90.8401 85.1048 90.4718 84.6902 90.0171C84.2756 89.5625 83.9549 89.0305 83.7463 88.4516C83.5378 87.8727 83.4456 87.2584 83.475 86.6438C83.5599 85.4126 84.1156 84.2615 85.0269 83.4293C85.9382 82.5972 87.135 82.148 88.3687 82.175C92.5255 82.2005 96.6331 83.0767 100.438 84.7498C104.244 86.4229 107.666 88.8574 110.495 91.9034C113.324 94.9494 115.499 98.5422 116.886 102.461C118.274 106.379 118.844 110.54 118.562 114.688ZM39.375 117.231L15.8125 140.813C14.9239 141.641 13.7486 142.091 12.5342 142.07C11.3198 142.048 10.1612 141.557 9.30235 140.698C8.44352 139.839 7.95157 138.68 7.93014 137.466C7.90871 136.251 8.35948 135.076 9.18748 134.188L31.5562 111.819C31.6973 104.037 34.8511 96.6128 40.3541 91.1086C45.8572 85.6044 53.2805 82.449 61.0625 82.3063L70.35 73.025C66.1937 72.1798 62.3441 70.224 59.2106 67.3655C56.0771 64.5071 53.7768 60.853 52.5543 56.7916C51.3317 52.7302 51.2327 48.4134 52.2677 44.3002C53.3027 40.187 55.433 36.4312 58.4321 33.4321C61.4312 30.433 65.187 28.3027 69.3002 27.2677C73.4134 26.2327 77.7301 26.3318 81.7915 27.5543C85.8529 28.7768 89.5071 31.0771 92.3655 34.2106C95.2239 37.3441 97.1797 41.1937 98.025 45.35L116.462 26.9125C115.64 25.8295 114.577 24.9521 113.359 24.3491C112.14 23.7461 110.797 23.4341 109.437 23.4375C107.241 23.3992 105.116 24.2226 103.519 25.7313C103.083 26.1843 102.561 26.545 101.983 26.7921C101.405 27.0392 100.783 27.1675 100.155 27.1695C99.5264 27.1715 98.904 27.047 98.3245 26.8036C97.7451 26.5602 97.2206 26.2027 96.7821 25.7525C96.3436 25.3023 96.0001 24.7685 95.7721 24.1828C95.544 23.5972 95.4361 22.9716 95.4547 22.3434C95.4733 21.7152 95.618 21.0972 95.8802 20.526C96.1425 19.9549 96.5169 19.4423 96.9812 19.0188C100.323 15.7974 104.796 14.0175 109.437 14.0625C112.027 14.0687 114.585 14.6297 116.94 15.7078C119.295 16.7859 121.391 18.3561 123.087 20.3125L134.187 9.18752C135.076 8.35952 136.251 7.90875 137.466 7.93017C138.68 7.9516 139.839 8.44355 140.698 9.30238C141.556 10.1612 142.048 11.3199 142.07 12.5343C142.091 13.7486 141.64 14.9239 140.812 15.8125L39.375 117.231ZM80.3125 63.0625L88.0625 55.3125C88.7439 53.645 89.1044 51.8638 89.125 50.0625C89.1312 47.2724 88.309 44.5432 86.7628 42.2207C85.2165 39.8982 83.0157 38.087 80.4391 37.0164C77.8626 35.9458 75.0262 35.664 72.2894 36.2068C69.5525 36.7497 67.0384 38.0926 65.0655 40.0655C63.0926 42.0384 61.7496 44.5526 61.2068 47.2894C60.664 50.0262 60.9457 52.8626 62.0163 55.4392C63.0869 58.0157 64.8982 60.2166 67.2207 61.7628C69.5432 63.3091 72.2724 64.1312 75.0625 64.125C76.8638 64.1044 78.6449 63.7439 80.3125 63.0625ZM117.437 54.25H116.062C114.819 54.25 113.627 54.7439 112.748 55.623C111.869 56.502 111.375 57.6943 111.375 58.9375C111.375 60.1807 111.869 61.373 112.748 62.2521C113.627 63.1312 114.819 63.625 116.062 63.625H117.437C119.51 63.432 121.6 63.6994 123.557 64.4078C125.514 65.1163 127.291 66.2485 128.76 67.7234C130.229 69.1983 131.354 70.9795 132.054 72.9397C132.755 74.8999 133.014 76.9907 132.812 79.0625C132.812 84.4625 130.881 86.375 125.437 86.375H123.187C121.944 86.375 120.752 86.8689 119.873 87.748C118.994 88.627 118.5 89.8193 118.5 91.0625C118.5 92.3057 118.994 93.498 119.873 94.3771C120.752 95.2562 121.944 95.75 123.187 95.75H125.437C127.69 95.9898 129.969 95.7236 132.106 94.9707C134.242 94.2178 136.184 92.9972 137.789 91.3981C139.395 89.799 140.622 87.8617 141.383 85.7276C142.144 83.5935 142.419 81.3164 142.187 79.0625C142.377 75.7598 141.868 72.4542 140.692 69.362C139.516 66.2699 137.7 63.4608 135.364 61.1186C133.028 58.7764 130.223 56.9539 127.134 55.7703C124.045 54.5867 120.741 54.0686 117.437 54.25ZM37.0125 50.2188C38.2317 50.4674 39.4997 50.2216 40.5376 49.5353C41.5755 48.849 42.2982 47.7786 42.5469 46.5594C42.7955 45.3402 42.5496 44.0722 41.8634 43.0343C41.1771 41.9964 40.1067 41.2737 38.8875 41.025C36.7241 40.5892 34.8004 39.3636 33.4913 37.5869C32.1822 35.8102 31.5815 33.6098 31.8062 31.4144C32.0308 29.219 33.0649 27.1859 34.7067 25.7112C36.3486 24.2366 38.4806 23.426 40.6875 23.4375C42.9058 23.4249 45.0444 24.2638 46.6625 25.7813C47.5659 26.6341 48.7711 27.0931 50.0129 27.0574C51.2547 27.0216 52.4315 26.494 53.2844 25.5906C54.1372 24.6873 54.5962 23.4821 54.5605 22.2402C54.5247 20.9984 53.9971 19.8216 53.0937 18.9688C49.7412 15.8019 45.2993 14.0453 40.6875 14.0625C36.1596 14.0566 31.791 15.733 28.4294 18.7663C25.0677 21.7997 22.9528 25.9736 22.4949 30.4783C22.037 34.9829 23.2689 39.4971 25.9515 43.1447C28.6341 46.7924 32.576 49.3135 37.0125 50.2188ZM24.5625 95.75H26.75C27.9932 95.75 29.1855 95.2562 30.0645 94.3771C30.9436 93.498 31.4375 92.3057 31.4375 91.0625C31.4375 89.8193 30.9436 88.627 30.0645 87.748C29.1855 86.8689 27.9932 86.375 26.75 86.375H24.5625C19.1187 86.375 17.1875 84.4625 17.1875 79.0625C16.9861 76.9907 17.2449 74.8999 17.9455 72.9397C18.646 70.9795 19.771 69.1983 21.2399 67.7234C22.7088 66.2485 24.4855 65.1163 26.4428 64.4078C28.4001 63.6994 30.4898 63.432 32.5625 63.625H38.75C39.9932 63.625 41.1855 63.1312 42.0645 62.2521C42.9436 61.373 43.4375 60.1807 43.4375 58.9375C43.4375 57.6943 42.9436 56.502 42.0645 55.623C41.1855 54.7439 39.9932 54.25 38.75 54.25H32.5625C29.2509 54.034 25.9315 54.5283 22.8265 55.6997C19.7216 56.8711 16.9028 58.6926 14.5592 61.0422C12.2156 63.3917 10.4012 66.215 9.2376 69.3229C8.07402 72.4308 7.58813 75.7515 7.81248 79.0625C7.5811 81.3164 7.85587 83.5935 8.61675 85.7276C9.37763 87.8617 10.6054 89.799 12.2105 91.3981C13.8156 92.9972 15.7575 94.2178 17.8944 94.9707C20.0314 95.7236 22.3095 95.9898 24.5625 95.75Z" fill="#111827"/>
</svg>
