<svg width="68" height="65" viewBox="0 0 68 65" fill="none" xmlns="http://www.w3.org/2000/svg">
<rect width="67.242" height="64.5766" rx="6.66667" fill="#1A2035"/>
<path fill-rule="evenodd" clip-rule="evenodd" d="M27.8402 30.8564C29.6275 34.7483 32.808 37.8425 36.7618 39.5191L36.7743 39.5244L37.5381 39.8648C38.5107 40.2982 39.6539 39.9904 40.2776 39.1273L41.5519 37.3636C41.6298 37.2558 41.6097 37.106 41.5063 37.0226L39.2815 35.2278C39.1709 35.1385 39.0083 35.1593 38.9237 35.2735L38.0578 36.4419C37.8475 36.7256 37.4678 36.8242 37.146 36.6786C34.1896 35.3407 31.8139 32.965 30.476 30.0086C30.3304 29.6868 30.429 29.3071 30.7127 29.0968L31.8811 28.2309C31.9953 28.1463 32.016 27.9837 31.9268 27.8731L30.1318 25.648C30.0483 25.5446 29.8986 25.5245 29.7909 25.6023L28.0176 26.8825C27.1488 27.5097 26.8428 28.6625 27.2863 29.638L27.8396 30.8551C27.8398 30.8555 27.84 30.856 27.8402 30.8564ZM36.1699 40.8974C31.8739 39.0738 28.4185 35.7108 26.4765 31.481L26.4753 31.4785L25.9208 30.2587C25.1817 28.633 25.6916 26.7116 27.1396 25.6663L28.9129 24.3861C29.667 23.8417 30.7152 23.9823 31.2992 24.7062L33.0943 26.9312C33.7188 27.7054 33.5734 28.8438 32.7742 29.4361L32.1047 29.9322C33.2356 32.1266 35.028 33.919 37.2224 35.0499L37.7185 34.3804C38.3108 33.5812 39.4492 33.4358 40.2234 34.0603L42.4481 35.8551C43.1722 36.4393 43.3126 37.4879 42.7678 38.242L41.4934 40.0058C40.454 41.4443 38.5487 41.9572 36.9276 41.235L36.1699 40.8974Z" fill="#A3A9B5"/>
</svg>
