<svg width="13" height="13" viewBox="0 0 13 13" fill="none" xmlns="http://www.w3.org/2000/svg">
<path opacity="0.5" fill-rule="evenodd" clip-rule="evenodd" d="M12.764 11.6423L10.0844 8.99884C10.8382 8.05293 11.2918 6.86284 11.2918 5.56947C11.2918 2.4985 8.75914 0 5.64628 0C2.53269 0 0 2.4985 0 5.56947C0 8.63976 2.53269 11.1383 5.64628 11.1383C6.86596 11.1383 7.99377 10.7498 8.9183 10.0986L11.6232 12.7675C11.7809 12.9227 11.987 13 12.1939 13C12.4001 13 12.6063 12.9227 12.764 12.7675C13.0787 12.4569 13.0787 11.9535 12.764 11.6423ZM1.6123 5.56943C1.6123 3.37597 3.4223 1.59152 5.64608 1.59152C7.86987 1.59152 9.67841 3.37597 9.67841 5.56943C9.67841 7.76288 7.86987 9.54664 5.64608 9.54664C3.4223 9.54664 1.6123 7.76288 1.6123 5.56943Z" fill="#626262"/>
</svg>
