<svg width="4" height="20" viewBox="0 0 4 20" fill="none" xmlns="http://www.w3.org/2000/svg">
<path d="M2 0.750048C2.69036 0.750048 3.25 1.30969 3.25 2.00005C3.25 2.6904 2.69036 3.25005 2 3.25005C1.30964 3.25005 0.750001 2.6904 0.750001 2.00005C0.750001 1.30969 1.30964 0.750048 2 0.750048ZM2 8.75005C2.69036 8.75005 3.25 9.30969 3.25 10C3.25 10.6904 2.69036 11.25 2 11.25C1.30964 11.25 0.75 10.6904 0.75 10C0.75 9.30969 1.30964 8.75005 2 8.75005ZM2 16.75C2.69036 16.75 3.25 17.3097 3.25 18C3.25 18.6904 2.69036 19.25 2 19.25C1.30964 19.25 0.75 18.6904 0.75 18C0.75 17.3097 1.30964 16.75 2 16.75Z" fill="#9AA1AE" stroke="#9AA1AE" stroke-width="1.5"/>
</svg>
