<svg width="171" height="51" viewBox="0 0 171 51" fill="none" xmlns="http://www.w3.org/2000/svg">
<path d="M35.5422 15.1622C35.5422 22.9156 29.2569 29.201 21.5035 29.201C13.7501 29.201 7.46473 22.9156 7.46473 15.1622C7.46473 7.40879 13.7501 1.12342 21.5035 1.12342C29.2569 1.12342 35.5422 7.40879 35.5422 15.1622Z" stroke="#089430" stroke-width="1.87183"/>
<ellipse cx="21.5048" cy="15.1621" rx="4.67959" ry="4.67959" fill="#089430"/>
<rect x="36.6865" y="14.0388" width="34.6289" height="1.87184" fill="#089430"/>
<path d="M100.542 15.1622C100.542 22.9156 94.2569 29.201 86.5035 29.201C78.7501 29.201 72.4647 22.9156 72.4647 15.1622C72.4647 7.40879 78.7501 1.12342 86.5035 1.12342C94.2569 1.12342 100.542 7.40879 100.542 15.1622Z" stroke="#089430" stroke-width="1.87183"/>
<ellipse cx="86.5048" cy="15.1621" rx="4.67959" ry="4.67959" fill="#089430"/>
<rect x="102.265" y="14.0388" width="34.6289" height="1.87184" fill="#089430"/>
<path d="M167.542 15.1622C167.542 22.9156 161.257 29.201 153.503 29.201C145.75 29.201 139.465 22.9156 139.465 15.1622C139.465 7.40879 145.75 1.12342 153.503 1.12342C161.257 1.12342 167.542 7.40879 167.542 15.1622Z" stroke="#089430" stroke-width="1.87183"/>
<ellipse cx="153.505" cy="15.1621" rx="4.67959" ry="4.67959" fill="#089430"/>
<path d="M8.48628 45.3107H9.50628V38.3387H12.2183V37.3907H5.77428V38.3387H8.48628V45.3107ZM13.7617 38.8787C14.1457 38.8787 14.4337 38.5907 14.4337 38.2067C14.4337 37.8227 14.1457 37.5347 13.7617 37.5347C13.3777 37.5347 13.0897 37.8227 13.0897 38.2067C13.0897 38.5907 13.3777 38.8787 13.7617 38.8787ZM13.2697 45.3107H14.2537V40.1507H13.2697V45.3107ZM18.5333 45.4547C19.3013 45.4547 19.9493 45.2627 20.4413 44.9027V43.8947C19.9373 44.3387 19.3253 44.5667 18.6053 44.5667C17.4653 44.5667 16.7333 44.0147 16.6013 43.0667H20.6693C20.6933 42.8627 20.7173 42.6347 20.7173 42.4067C20.7173 40.9547 19.7213 40.0067 18.2213 40.0067C16.6253 40.0067 15.5693 41.0747 15.5693 42.6947C15.5693 44.3987 16.7213 45.4547 18.5333 45.4547ZM16.6133 42.2387C16.7573 41.3867 17.3333 40.8947 18.2093 40.8947C19.0973 40.8947 19.6493 41.3747 19.7573 42.2387H16.6133ZM22.0236 45.3107H23.0076V42.1427C23.2956 41.4107 23.8236 41.0147 24.5556 41.0147C24.6876 41.0147 24.8316 41.0267 24.9516 41.0507V40.0427C24.8556 40.0187 24.7476 40.0067 24.5916 40.0067C23.8356 40.0067 23.2836 40.3187 22.9116 41.0267L22.7676 40.1507H22.0236V45.3107ZM29.0709 45.3107H34.2549V44.3867H32.1789V37.3907H31.4589L28.8549 38.6267V39.5867L31.1589 38.5187V44.3867H29.0709V45.3107Z" fill="#089430"/>
<path d="M76.664 45.3107H77.684V38.3387H80.396V37.3907H73.952V38.3387H76.664V45.3107ZM81.9394 38.8787C82.3234 38.8787 82.6114 38.5907 82.6114 38.2067C82.6114 37.8227 82.3234 37.5347 81.9394 37.5347C81.5554 37.5347 81.2674 37.8227 81.2674 38.2067C81.2674 38.5907 81.5554 38.8787 81.9394 38.8787ZM81.4474 45.3107H82.4314V40.1507H81.4474V45.3107ZM86.711 45.4547C87.479 45.4547 88.127 45.2627 88.619 44.9027V43.8947C88.115 44.3387 87.503 44.5667 86.783 44.5667C85.643 44.5667 84.911 44.0147 84.779 43.0667H88.847C88.871 42.8627 88.895 42.6347 88.895 42.4067C88.895 40.9547 87.899 40.0067 86.399 40.0067C84.803 40.0067 83.747 41.0747 83.747 42.6947C83.747 44.3987 84.899 45.4547 86.711 45.4547ZM84.791 42.2387C84.935 41.3867 85.511 40.8947 86.387 40.8947C87.275 40.8947 87.827 41.3747 87.935 42.2387H84.791ZM90.2013 45.3107H91.1853V42.1427C91.4733 41.4107 92.0013 41.0147 92.7333 41.0147C92.8653 41.0147 93.0093 41.0267 93.1293 41.0507V40.0427C93.0333 40.0187 92.9253 40.0067 92.7693 40.0067C92.0133 40.0067 91.4613 40.3187 91.0893 41.0267L90.9453 40.1507H90.2013V45.3107ZM96.3366 45.3107H101.977V44.3747H97.8246L99.5526 43.0067C101.401 41.5427 102.001 40.7747 102.001 39.5987C102.001 38.1107 101.029 37.2467 99.2406 37.2467C98.2086 37.2467 97.2606 37.5347 96.5406 38.1707V39.2627C97.2726 38.5307 98.1726 38.1707 99.1686 38.1707C100.357 38.1707 100.969 38.6867 100.969 39.6347C100.969 40.5227 100.441 41.1227 98.8566 42.4187L96.3366 44.4827V45.3107Z" fill="#089430"/>
<path d="M138.842 45.3107H139.862V38.3387H142.574V37.3907H136.13V38.3387H138.842V45.3107ZM144.117 38.8787C144.501 38.8787 144.789 38.5907 144.789 38.2067C144.789 37.8227 144.501 37.5347 144.117 37.5347C143.733 37.5347 143.445 37.8227 143.445 38.2067C143.445 38.5907 143.733 38.8787 144.117 38.8787ZM143.625 45.3107H144.609V40.1507H143.625V45.3107ZM148.889 45.4547C149.657 45.4547 150.305 45.2627 150.797 44.9027V43.8947C150.293 44.3387 149.681 44.5667 148.961 44.5667C147.821 44.5667 147.089 44.0147 146.957 43.0667H151.025C151.049 42.8627 151.073 42.6347 151.073 42.4067C151.073 40.9547 150.077 40.0067 148.577 40.0067C146.981 40.0067 145.925 41.0747 145.925 42.6947C145.925 44.3987 147.077 45.4547 148.889 45.4547ZM146.969 42.2387C147.113 41.3867 147.689 40.8947 148.565 40.8947C149.453 40.8947 150.005 41.3747 150.113 42.2387H146.969ZM152.379 45.3107H153.363V42.1427C153.651 41.4107 154.179 41.0147 154.911 41.0147C155.043 41.0147 155.187 41.0267 155.307 41.0507V40.0427C155.211 40.0187 155.103 40.0067 154.947 40.0067C154.191 40.0067 153.639 40.3187 153.267 41.0267L153.123 40.1507H152.379V45.3107ZM161.334 45.4547C163.362 45.4547 164.49 44.6267 164.49 43.1267C164.49 42.1427 163.998 41.4827 163.05 41.1827V41.1587C163.806 40.8587 164.19 40.2587 164.19 39.4067C164.19 38.0267 163.182 37.2467 161.394 37.2467C160.338 37.2467 159.426 37.5227 158.73 38.0387V39.0707C159.462 38.4707 160.29 38.1707 161.262 38.1707C162.498 38.1707 163.158 38.6507 163.158 39.5267C163.158 40.3787 162.534 40.8107 161.274 40.8107H159.87V41.7347H161.418C162.738 41.7347 163.458 42.1787 163.458 43.0667C163.458 44.0027 162.678 44.5307 161.25 44.5307C160.11 44.5307 159.162 44.1947 158.478 43.5707V44.6147C159.09 45.1547 160.11 45.4547 161.334 45.4547Z" fill="#089430"/>
</svg>
