<svg width="100" height="100" viewBox="0 0 100 100" fill="none" xmlns="http://www.w3.org/2000/svg">
<path d="M67.207 58.6667H18.6666V66.6667H67.207V78.6667L83.3333 62.6667L67.207 46.6667V58.6667Z" fill="#54648D"/>
<path d="M32.1262 32.6667H80.6666V40.6667H32.1262V52.6667L16 36.6667L32.1262 20.6667V32.6667Z" fill="#54648D"/>
<path d="M50 0C59.8891 0 69.556 2.93245 77.7785 8.42652C86.001 13.9206 92.4096 21.7295 96.194 30.8658C99.9783 40.0021 100.969 50.0555 99.0392 59.7545C97.11 69.4535 92.3479 78.3627 85.3553 85.3553C78.3627 92.3479 69.4535 97.11 59.7545 99.0392C50.0555 100.969 40.0021 99.9783 30.8658 96.194C21.7295 92.4096 13.9206 86.001 8.42651 77.7785C2.93245 69.556 -9.53669e-07 59.8891 -9.53669e-07 50C-9.53669e-07 36.7392 5.26784 24.0215 14.6447 14.6447C24.0215 5.26784 36.7392 0 50 0ZM93.75 50C93.747 39.4871 89.9396 29.3305 83.0312 21.4062L21.4062 83.0312C27.7441 88.5041 35.5194 92.0432 43.8089 93.2282C52.0984 94.4132 60.5539 93.1943 68.1713 89.7163C75.7886 86.2383 82.2478 80.6473 86.7819 73.6073C91.316 66.5672 93.7344 58.3738 93.75 50ZM16.9687 78.5937L78.5937 16.9687C70.2082 9.96228 59.5043 6.34749 48.5879 6.83554C37.6714 7.32359 27.3328 11.8791 19.606 19.606C11.8791 27.3328 7.32359 37.6714 6.83554 48.5879C6.34749 59.5043 9.96228 70.2082 16.9687 78.5937Z" fill="#54648D"/>
</svg>
