<svg width="15" height="15" viewBox="0 0 15 15" fill="none" xmlns="http://www.w3.org/2000/svg">
<path d="M5.72667 5.66667C5.8834 5.22111 6.19277 4.8454 6.59997 4.60609C7.00717 4.36677 7.48593 4.27929 7.95145 4.35914C8.41697 4.43899 8.83921 4.68102 9.14339 5.04235C9.44756 5.40369 9.61404 5.86101 9.61333 6.33333C9.61333 7.66667 7.61333 8.33333 7.61333 8.33333M7.66667 11H7.67333M14.3333 7.66667C14.3333 11.3486 11.3486 14.3333 7.66667 14.3333C3.98477 14.3333 1 11.3486 1 7.66667C1 3.98477 3.98477 1 7.66667 1C11.3486 1 14.3333 3.98477 14.3333 7.66667Z" stroke="#98A2B3" stroke-width="1.33333" stroke-linecap="round" stroke-linejoin="round"/>
</svg>
