<svg width="64" height="64" viewBox="0 0 64 64" fill="none" xmlns="http://www.w3.org/2000/svg">
<rect width="64" height="64" rx="6.66667" fill="#202940"/>
<g clip-path="url(#clip0_1144_2071)">
<path d="M53.3333 36.6222C53.3333 37.6889 51.2 38.4 48.7111 38.7555C47.1111 35.7333 43.9111 33.4222 40.1777 31.8222C40.5333 31.2889 40.8888 30.9333 41.2444 30.4H42.6666C48.1777 30.2222 53.3333 33.6 53.3333 36.6222ZM22.7555 30.2222H21.3333C15.8222 30.2222 10.6666 33.6 10.6666 36.6222C10.6666 37.6889 12.8 38.4 15.2888 38.7555C16.8888 35.7333 20.0888 33.4222 23.8222 31.8222L22.7555 30.2222ZM32 32C35.9111 32 39.1111 28.8 39.1111 24.8889C39.1111 20.9778 35.9111 17.7778 32 17.7778C28.0888 17.7778 24.8888 20.9778 24.8888 24.8889C24.8888 28.8 28.0888 32 32 32ZM32 33.7778C24.7111 33.7778 17.7777 38.4 17.7777 42.6667C17.7777 46.2222 32 46.2222 32 46.2222C32 46.2222 46.2222 46.2222 46.2222 42.6667C46.2222 38.4 39.2888 33.7778 32 33.7778ZM42.1333 28.4444H42.6666C45.6889 28.4444 48 26.1333 48 23.1111C48 20.0889 45.6889 17.7778 42.6666 17.7778C41.7777 17.7778 41.0666 17.9555 40.3555 18.3111C41.7777 20.0889 42.6666 22.4 42.6666 24.8889C42.6666 26.1333 42.4888 27.3778 42.1333 28.4444ZM21.3333 28.4444H21.8666C21.5111 27.3778 21.3333 26.1333 21.3333 24.8889C21.3333 22.4 22.2222 20.0889 23.6444 18.3111C22.9333 17.9555 22.2222 17.7778 21.3333 17.7778C18.3111 17.7778 16 20.0889 16 23.1111C16 26.1333 18.3111 28.4444 21.3333 28.4444Z" fill="#B0B7CA"/>
</g>
<defs>
<clipPath id="clip0_1144_2071">
<rect width="42.6667" height="42.6667" fill="white" transform="translate(10.6666 10.6667)"/>
</clipPath>
</defs>
</svg>
