<svg width="64" height="64" viewBox="0 0 64 64" fill="none" xmlns="http://www.w3.org/2000/svg">
<rect width="64" height="64" rx="6.66667" fill="#202940"/>
<path fill-rule="evenodd" clip-rule="evenodd" d="M47.3334 42.6667C47.3334 44.508 45.8414 46 44.0001 46H20.0001C18.1587 46 16.6667 44.508 16.6667 42.6667V23.3333C16.6667 21.8607 17.8607 20.6667 19.3334 20.6667H32.7807L38.1801 18.7107C38.5221 18.586 38.9007 18.7627 39.0254 19.1033L39.5941 20.6667H42.0001C43.4727 20.6667 44.6667 21.8607 44.6667 23.3333V24.6667C46.1394 24.6667 47.3334 25.8607 47.3334 27.3333V42.6667ZM19.3334 22C18.5974 22 18.0001 22.5973 18.0001 23.3333C18.0001 24.0693 18.5974 24.6667 19.3334 24.6667H21.6301H21.7561C21.7647 24.6633 21.7701 24.656 21.7787 24.6527L29.1001 22H19.3334ZM38.7187 22.1207L38.0107 20.1713L36.6427 20.6667H36.6447L32.9687 22H32.9621L25.6027 24.6667H39.6441L38.7187 22.1207ZM43.3334 23.3333C43.3334 22.5973 42.7361 22 42.0001 22H40.0781L41.0474 24.6667H43.3334V23.3333ZM44.6667 26H19.3334C18.8454 26 18.3934 25.8593 18.0001 25.63V42.6667C18.0001 43.7713 18.8961 44.6667 20.0001 44.6667H44.0001C45.1047 44.6667 46.0001 43.7713 46.0001 42.6667V38H43.3334C41.8607 38 40.6667 36.806 40.6667 35.3333C40.6667 33.8607 41.8607 32.6667 43.3334 32.6667H46.0001V27.3333C46.0001 26.5973 45.4027 26 44.6667 26ZM46.0001 36.6667V34H43.3334C42.5974 34 42.0001 34.5973 42.0001 35.3333C42.0001 36.0693 42.5974 36.6667 43.3334 36.6667H46.0001ZM43.3334 34.6667H44.6667V36H43.3334V34.6667Z" fill="#AAC1FF"/>
</svg>
