<svg width="31" height="31" viewBox="0 0 47 47" fill="none" xmlns="http://www.w3.org/2000/svg">
<g clip-path="url(#clip0_3528_17251)">
<path d="M44.845 42.718H2.136C0.956 42.718 0 43.674 0 44.855C0 46.034 0.956 46.99 2.136 46.99H44.844C46.024 46.99 46.98 46.034 46.98 44.855C46.979 43.674 46.023 42.718 44.845 42.718Z" fill="white"/>
<path d="M4.80495 37.165C3.62495 37.165 2.66895 38.121 2.66895 39.301C2.66895 40.481 3.62495 41.438 4.80495 41.438H42.1749C43.3549 41.438 44.3109 40.481 44.3109 39.301C44.3109 38.121 43.3549 37.165 42.1749 37.165H41.6419V17.945H42.1749C42.7659 17.945 43.2419 17.467 43.2419 16.878C43.2419 16.289 42.7639 15.811 42.1749 15.811H4.80495C4.21495 15.811 3.73795 16.289 3.73795 16.878C3.73795 17.467 4.21595 17.945 4.80495 17.945H5.33895V37.164L4.80495 37.165ZM37.3699 17.945V37.164H30.9639V17.945H37.3699ZM26.6919 17.945V37.164H20.2859V17.945H26.6919ZM9.60895 17.945H16.0149V37.164H9.60895V17.945Z" fill="white"/>
<path d="M2.13604 13.891H44.844C44.851 13.891 44.859 13.891 44.865 13.891C46.046 13.891 47.001 12.935 47.001 11.755C47.001 10.817 46.397 10.022 45.558 9.73397L24.368 0.198975C23.811 -0.0510254 23.174 -0.0510254 22.616 0.198975L1.26004 9.80797C0.34104 10.222 -0.163959 11.22 0.0480406 12.204C0.259041 13.188 1.12904 13.891 2.13604 13.891Z" fill="white"/>
</g>
<defs>
<clipPath id="clip0_3528_17251">
<rect width="47.001" height="47.001" fill="white"/>
</clipPath>
</defs>
</svg>
