<svg width="31" height="31" viewBox="0 0 512 512" fill="none" xmlns="http://www.w3.org/2000/svg">
<path d="M512 163V136C512 105.072 486.928 80 456 80H56C25.072 80 0 105.072 0 136V163C0 165.761 2.239 168 5 168H507C509.761 168 512 165.761 512 163Z" fill="white"/>
<path d="M0 205V376C0 406.928 25.072 432 56 432H456C486.928 432 512 406.928 512 376V205C512 202.239 509.761 200 507 200H5C2.239 200 0 202.239 0 205ZM128 336C128 344.836 120.836 352 112 352H96C87.164 352 80 344.836 80 336V320C80 311.164 87.164 304 96 304H112C120.836 304 128 311.164 128 320V336Z" fill="white"/>
</svg>
