<svg width="27" height="27" viewBox="0 0 27 27" fill="none" xmlns="http://www.w3.org/2000/svg">
<path d="M25.5042 20.5843C24.1605 19.2453 22 19.2453 20.6563 20.5843C19.3126 21.9234 19.3126 24.0763 20.6563 25.4153C22 26.7544 24.1605 26.7544 25.5042 25.4153C26.8479 24.0763 26.8479 21.9234 25.5042 20.5843ZM21.9473 24.1551C21.315 23.5249 21.315 22.501 21.9473 21.8446C22.5796 21.2145 23.6072 21.2145 24.2659 21.8446C24.8982 22.4747 24.8982 23.4987 24.2659 24.1551C23.6072 24.7852 22.5796 24.7852 21.9473 24.1551Z" fill="white"/>
<path d="M18.6275 15.8846H8.03593C3.63593 15.8846 0.0790419 12.3401 0.0790419 7.95542C0.0790419 3.57075 3.63593 0.0262555 8.03593 0.0262555H18.6275C23.0275 0.0262555 26.5844 3.597 26.5844 7.95542C26.5844 12.3138 23.0012 15.8846 18.6275 15.8846ZM7.53533 2.10044C4.34731 2.10044 1.84431 1.62784 2.18683 7.8504C2.18683 7.87665 2.18683 7.90291 2.18683 7.95542C2.18683 11.1586 4.82156 13.7579 8.03593 13.7579H18.6275C21.8419 13.7579 24.4503 11.1586 24.4503 7.95542C24.4503 4.75225 21.8419 2.15295 18.6275 2.15295H7.61437L7.53533 2.10044Z" fill="white"/>
<path d="M10.3018 26.413H8.27305C5.24311 26.413 2.55569 24.3651 1.76527 21.4508C0.579641 17.1448 0 12.6814 0 8.19172V6.72141C0 3.01938 3.02994 0 6.74491 0C9.77485 0 12.4623 2.04793 13.2527 4.96229L16.8096 17.9325C17.3629 19.9804 16.9413 22.1071 15.6766 23.7875C14.3593 25.4416 12.4096 26.413 10.3018 26.413ZM3.82036 20.8994C4.37365 22.8948 6.19162 24.2863 8.27305 24.2863H10.3018C11.7509 24.2863 13.0946 23.63 13.9641 22.4747C14.8335 21.3195 15.1234 19.8754 14.7545 18.4839L11.1976 5.51366C10.6443 3.51824 8.82635 2.1267 6.74491 2.1267C4.21557 2.1267 2.13413 4.17463 2.13413 6.72141V8.19172C2.13413 12.4976 2.68742 16.751 3.82036 20.8994Z" fill="white"/>
<path d="M1.15928 7.92916C1.71257 7.92916 2.18683 7.48282 2.16048 6.9052C2.16048 6.61639 2.16048 6.35383 2.16048 6.17005C2.37126 1.73286 4.66347 2.1267 7.50898 2.1267L7.61437 2.15295H18.6275C21.5257 2.15295 23.9497 4.27965 24.3713 7.03648C24.4503 7.53533 24.8719 7.90291 25.3725 7.90291H25.4778C26.1102 7.90291 26.5844 7.35154 26.479 6.72141C25.8994 2.94062 22.606 0.0262555 18.6275 0.0262555H8.03593C4.05748 0.0262555 0.764072 2.94062 0.184431 6.74767C0.0790419 7.3778 0.553293 7.92916 1.15928 7.92916Z" fill="white"/>
<path d="M8.51018 25.2841C8.51018 24.7327 8.08862 24.2863 7.56168 24.2338C7.42994 24.2076 7.2982 24.2076 7.21916 24.1813C5.61198 23.7875 4.29461 22.5535 3.84671 20.9256C2.71377 16.7773 2.13413 12.5239 2.16048 8.21797V6.85269C2.16048 4.72599 3.55689 2.8356 5.63832 2.31049C6.21796 2.15295 6.77126 2.1267 7.32455 2.20546C8.00958 2.28423 8.53653 1.83789 8.53653 1.15524C8.53653 0.603877 8.14132 0.157533 7.58802 0.105022C7.32455 0.0787665 7.03473 0.052511 6.77126 0.052511C3.02994 0 0 3.01938 0 6.69516V8.16546C0 12.6552 0.579641 17.1186 1.76527 21.4508C2.4503 23.9188 4.45269 25.7567 6.90299 26.2555C7.00838 26.2818 7.14012 26.308 7.2982 26.308C7.95689 26.3868 8.51018 25.9142 8.51018 25.2841Z" fill="white"/>
<path d="M24.2395 24.1551C23.7389 24.6539 23.0012 24.7589 22.3952 24.4964C22.079 24.3389 21.6838 24.3914 21.4467 24.6539L21.394 24.6802C20.9725 25.1003 21.1042 25.8354 21.6575 26.098C22.9222 26.6756 24.4766 26.4393 25.5042 25.4153C26.5581 24.3651 26.7689 22.8423 26.1892 21.582C25.9257 21.0307 25.2144 20.8994 24.7665 21.3195L24.7138 21.372C24.4503 21.6345 24.4239 22.0021 24.5557 22.3172C24.8455 22.9211 24.7401 23.6562 24.2395 24.1551Z" fill="white"/>
</svg>
